999
FreeCAD v0.19 24291 (Git)
  0
SECTION
  2
HEADER
  9
$ACADVER
  1
AC1014
  9
$ACADMAINTVER
 70
     9
  9
$DWGCODEPAGE
  3
ANSI_1252
  9
$TEXTSTYLE
  7
STANDARD
  9
$DIMSTYLE
  2
STANDARD
  9
$DIMTXSTY
  7
STANDARD
  9
$CMLSTYLE
  2
STANDARD
  9
$PEXTMAX
 10
50
 20
50
 30
50
  9
$PEXTMIN
 10
0
 20
0
 30
0
  9
$HANDSEED
  5
FFFF
  0
ENDSEC
  0
SECTION
  2
CLASSES
  0
CLASS
  1
ACDBDICTIONARYWDFLT
  2
AcDbDictionaryWithDefault
  3
ObjectDBX Classes
 90
        0
280
     0
281
     0
  0
CLASS
  1
XRECORD
  2
AcDbXrecord
  3
ObjectDBX Classes
 90
        0
280
     0
281
     0
  0
CLASS
  1
LWPOLYLINE
  2
AcDbPolyline
  3
ObjectDBX Classes
 90
        0
280
     0
281
     1
  0
ENDSEC
  0
SECTION
  2
TABLES
  0
TABLE
  2
VPORT
  5
20
330
0
100
AcDbSymbolTable
 70
     1
  0
VPORT
  5
21
330
20
100
AcDbSymbolTableRecord
100
AcDbViewportTableRecord
  2
*ACTIVE
 70
     0
  0
ENDTAB
  0
TABLE
  2
LTYPE
  5
22
330
0
100
AcDbSymbolTable
 70
     1
  0
LTYPE
  5
23
330
21
100
AcDbSymbolTableRecord
100
AcDbLinetypeTableRecord
  2
BYBLOCK
 70
     0
  3

 72
    65
 73
     0
 40
0.0
  0
LTYPE
  5
24
330
21
100
AcDbSymbolTableRecord
100
AcDbLinetypeTableRecord
  2
BYLAYER
 70
     0
  3

 72
    65
 73
     0
 40
0.0
  0
LTYPE
  5
25
330
21
100
AcDbSymbolTableRecord
100
AcDbLinetypeTableRecord
  2
CONTINUOUS
 70
     0
  3
Solid line
 72
    65
 73
     0
 40
0.0
  0
ENDTAB
  0
TABLE
  2
LAYER
  5
B58
330
0
100
AcDbSymbolTable
 70
3
  0
LAYER
  5
B59
330
B58
100
AcDbSymbolTableRecord
100
AcDbLayerTableRecord
  2
0
 70
   0
 62
   7
  6
CONTINUOUS
  0
LAYER
  5
B5A
330
B58
100
AcDbSymbolTableRecord
100
AcDbLayerTableRecord
  2
none
 70
    0
 62
    7
  6
CONTINUOUS
  0
LAYER
  5
B5B
330
B58
100
AcDbSymbolTableRecord
100
AcDbLayerTableRecord
  2
Solid
 70
    0
 62
    7
  6
CONTINUOUS
  0
ENDTAB
  0
TABLE
  2
STYLE
  5
70
330
0
100
AcDbSymbolTable
 70
     2
  0
STYLE
  5
71
330
70
100
AcDbSymbolTableRecord
100
AcDbTextStyleTableRecord
  2
STANDARD
 70
     0
 40
0.0
 41
1.0
 50
0.0
 71
     0
 42
2.5
  3
arial.ttf
  4

  0
STYLE
  5
72
330
70
100
AcDbSymbolTableRecord
100
AcDbTextStyleTableRecord
  2
ANNOTATIVE
 70
     0
 40
0.0
 41
1.0
 50
0.0
 71
     0
 42
2.5
  3
arial.ttf
  4

  0
ENDTAB
  0
TABLE
  2
VIEW
  5
73
330
0
100
AcDbSymbolTable
 70
     0
  0
ENDTAB
  0
TABLE
  2
UCS
  5
74
330
0
100
AcDbSymbolTable
 70
     0
  0
ENDTAB
  0
TABLE
  2
APPID
  5
75
330
0
100
AcDbSymbolTable
 70
     2
  0
APPID
  5
76
330
75
100
AcDbSymbolTableRecord
100
AcDbRegAppTableRecord
  2
ACAD
 70
     0
  0
APPID
  5
77
330
75
100
AcDbSymbolTableRecord
100
AcDbRegAppTableRecord
  2
ACADANNOTATIVE
 70
     0
  0
ENDTAB
  0
TABLE
  2
DIMSTYLE
  5
78
330
0
100
AcDbSymbolTable
 70
     2
  0
DIMSTYLE
105
79
330
78
100
AcDbSymbolTableRecord
100
AcDbDimStyleTableRecord
  2
STANDARD
 70
     0
  3

  4

  5

  6

  7

 40
0.0
 41
2.5
 42
0.625
 43
3.75
 44
1.25
 45
0.0
 46
0.0
 47
0.0
 48
0.0
140
2.5
141
2.5
142
0.0
143
0.03937007874016
144
1.0
145
0.0
146
1.0
147
0.625
 71
     0
 72
     0
 73
     0
 74
     0
 75
     0
 76
     0
 77
     1
 78
     8
170
     0
171
     3
172
     1
173
     0
174
     0
175
     0
176
     0
177
     0
178
     0
270
     2
271
     2
272
     2
273
     2
274
     3
340
71
275
     0
280
     0
281
     0
282
     0
283
     0
284
     8
285
     0
286
     0
287
     3
288
     0
  0
ENDTAB
  0
TABLE
  2
BLOCK_RECORD
  5
A01
330
0
100
AcDbSymbolTable
  70
5
  0
BLOCK_RECORD
  5
A02
330
A01
100
AcDbSymbolTableRecord
100
AcDbBlockTableRecord
  2
*MODEL_SPACE
  0
BLOCK_RECORD
  5
A03
330
A01
100
AcDbSymbolTableRecord
100
AcDbBlockTableRecord
  2
*PAPER_SPACE
  0
ENDTAB
  0
ENDSEC
  0
SECTION
  2
BLOCKS
  0
BLOCK
  5
A04
330
A02
100
AcDbEntity
  8
0
100
AcDbBlockBegin
  2
*MODEL_SPACE
 70
   0
 10
0
 20
0
 30
0
  3
*MODEL_SPACE
  1
 
  0
ENDBLK
  5
A05
330
A02
100
AcDbEntity
  8
0
100
AcDbBlockEnd
  0
BLOCK
  5
A06
330
A03
100
AcDbEntity
 67
1
  8
0
100
AcDbBlockBegin
  2
*PAPER_SPACE
 70
   0
 10
0
 20
0
 30
0
  3
*PAPER_SPACE
  1
 
  0
ENDBLK
  5
A07
330
A03
100
AcDbEntity
 67
    1
  8
0
100
AcDbBlockEnd
  0
ENDSEC
  0
SECTION
  2
ENTITIES
  0
LINE
  5
A08
330
A02
100
AcDbEntity
  8
Solid
100
AcDbLine
 10
-18.2694
 20
-13.1064
 30
0
 11
-18.2694
 21
-13.1064
 31
2
  0
ARC
  5
A09
330
A02
100
AcDbEntity
  8
Solid
100
AcDbCircle
 10
-19.9101
 20
-10.5947
 30
2
 40
3
100
AcDbArc
 50
38.2451
 51
-56.8466
  0
LINE
  5
A0A
330
A02
100
AcDbEntity
  8
Solid
100
AcDbLine
 10
-17.554
 20
-8.73766
 30
0
 11
-17.554
 21
-8.73766
 31
2
  0
ARC
  5
A0B
330
A02
100
AcDbEntity
  8
Solid
100
AcDbCircle
 10
-19.9101
 20
-10.5947
 30
0
 40
3
100
AcDbArc
 50
38.2451
 51
-56.8466
  0
ARC
  5
A0C
330
A02
100
AcDbEntity
  8
Solid
100
AcDbCircle
 10
-17.7226
 20
-13.9436
 30
0
 40
1
100
AcDbArc
 50
38.2451
 51
123.153
  0
LINE
  5
A0D
330
A02
100
AcDbEntity
  8
Solid
100
AcDbLine
 10
-18.2694
 20
-13.1064
 30
0
 11
-18.2694
 21
-13.1064
 31
2
  0
ARC
  5
A0E
330
A02
100
AcDbEntity
  8
Solid
100
AcDbCircle
 10
-17.7226
 20
-13.9436
 30
2
 40
1
100
AcDbArc
 50
38.2451
 51
123.153
  0
LINE
  5
A0F
330
A02
100
AcDbEntity
  8
Solid
100
AcDbLine
 10
-16.9372
 20
-13.3246
 30
0
 11
-16.9372
 21
-13.3246
 31
2
  0
LINE
  5
A10
330
A02
100
AcDbEntity
  8
Solid
100
AcDbLine
 10
-16.2217
 20
-8.95585
 30
2
 11
-16.2217
 21
-8.95585
 31
0
  0
ARC
  5
A11
330
A02
100
AcDbEntity
  8
Solid
100
AcDbCircle
 10
-14.5811
 20
-11.4675
 30
2
 40
3
100
AcDbArc
 50
-141.755
 51
123.153
  0
LINE
  5
A12
330
A02
100
AcDbEntity
  8
Solid
100
AcDbLine
 10
-16.9372
 20
-13.3246
 30
0
 11
-16.9372
 21
-13.3246
 31
2
  0
ARC
  5
A13
330
A02
100
AcDbEntity
  8
Solid
100
AcDbCircle
 10
-14.5811
 20
-11.4675
 30
0
 40
3
100
AcDbArc
 50
-141.755
 51
123.153
  0
ARC
  5
A14
330
A02
100
AcDbEntity
  8
Solid
100
AcDbCircle
 10
-16.7686
 20
-8.11864
 30
0
 40
1
100
AcDbArc
 50
-141.755
 51
-56.8466
  0
LINE
  5
A15
330
A02
100
AcDbEntity
  8
Solid
100
AcDbLine
 10
-16.2217
 20
-8.95585
 30
2
 11
-16.2217
 21
-8.95585
 31
0
  0
ARC
  5
A16
330
A02
100
AcDbEntity
  8
Solid
100
AcDbCircle
 10
-16.7686
 20
-8.11864
 30
2
 40
1
100
AcDbArc
 50
-141.755
 51
-56.8466
  0
LINE
  5
A17
330
A02
100
AcDbEntity
  8
Solid
100
AcDbLine
 10
-17.554
 20
-8.73766
 30
0
 11
-17.554
 21
-8.73766
 31
2
  0
ARC
  5
A18
330
A02
100
AcDbEntity
  8
Solid
100
AcDbCircle
 10
-13.9435
 20
-19.2028
 30
0
 40
1
100
AcDbArc
 50
-51.7549
 51
33.1534
  0
LINE
  5
A19
330
A02
100
AcDbEntity
  8
Solid
100
AcDbLine
 10
-13.1063
 20
-18.6559
 30
0
 11
-13.1063
 21
-18.6559
 31
2
  0
ARC
  5
A1A
330
A02
100
AcDbEntity
  8
Solid
100
AcDbCircle
 10
-13.9435
 20
-19.2028
 30
2
 40
1
100
AcDbArc
 50
-51.7549
 51
33.1534
  0
LINE
  5
A1B
330
A02
100
AcDbEntity
  8
Solid
100
AcDbLine
 10
-13.3245
 20
-19.9882
 30
0
 11
-13.3245
 21
-19.9882
 31
2
  0
LINE
  5
A1C
330
A02
100
AcDbEntity
  8
Solid
100
AcDbLine
 10
-8.95579
 20
-20.7036
 30
0
 11
-8.95579
 21
-20.7036
 31
2
  0
ARC
  5
A1D
330
A02
100
AcDbEntity
  8
Solid
100
AcDbCircle
 10
-11.4674
 20
-22.3443
 30
2
 40
3
100
AcDbArc
 50
128.245
 51
33.1534
  0
LINE
  5
A1E
330
A02
100
AcDbEntity
  8
Solid
100
AcDbLine
 10
-13.3245
 20
-19.9882
 30
0
 11
-13.3245
 21
-19.9882
 31
2
  0
ARC
  5
A1F
330
A02
100
AcDbEntity
  8
Solid
100
AcDbCircle
 10
-11.4674
 20
-22.3443
 30
0
 40
3
100
AcDbArc
 50
128.245
 51
33.1534
  0
ARC
  5
A20
330
A02
100
AcDbEntity
  8
Solid
100
AcDbCircle
 10
-8.11858
 20
-20.1568
 30
0
 40
1
100
AcDbArc
 50
128.245
 51
-146.847
  0
LINE
  5
A21
330
A02
100
AcDbEntity
  8
Solid
100
AcDbLine
 10
-8.95579
 20
-20.7036
 30
0
 11
-8.95579
 21
-20.7036
 31
2
  0
ARC
  5
A22
330
A02
100
AcDbEntity
  8
Solid
100
AcDbCircle
 10
-8.11858
 20
-20.1568
 30
2
 40
1
100
AcDbArc
 50
128.245
 51
-146.847
  0
LINE
  5
A23
330
A02
100
AcDbEntity
  8
Solid
100
AcDbLine
 10
-8.73761
 20
-19.3714
 30
2
 11
-8.73761
 21
-19.3714
 31
0
  0
LINE
  5
A24
330
A02
100
AcDbEntity
  8
Solid
100
AcDbLine
 10
-13.1063
 20
-18.6559
 30
0
 11
-13.1063
 21
-18.6559
 31
2
  0
ARC
  5
A25
330
A02
100
AcDbEntity
  8
Solid
100
AcDbCircle
 10
-10.5947
 20
-17.0153
 30
2
 40
3
100
AcDbArc
 50
-51.7549
 51
-146.847
  0
LINE
  5
A26
330
A02
100
AcDbEntity
  8
Solid
100
AcDbLine
 10
-8.73761
 20
-19.3714
 30
2
 11
-8.73761
 21
-19.3714
 31
0
  0
ARC
  5
A27
330
A02
100
AcDbEntity
  8
Solid
100
AcDbCircle
 10
-10.5947
 20
-17.0153
 30
0
 40
3
100
AcDbArc
 50
-51.7549
 51
-146.847
  0
ARC
  5
A28
330
A02
100
AcDbEntity
  8
Solid
100
AcDbCircle
 10
-22.9818
 20
-17.7226
 30
0
 40
1
100
AcDbArc
 50
128.245
 51
-146.847
  0
LINE
  5
A29
330
A02
100
AcDbEntity
  8
Solid
100
AcDbLine
 10
-23.819
 20
-18.2695
 30
0
 11
-23.819
 21
-18.2695
 31
2
  0
ARC
  5
A2A
330
A02
100
AcDbEntity
  8
Solid
100
AcDbCircle
 10
-22.9818
 20
-17.7226
 30
2
 40
1
100
AcDbArc
 50
128.245
 51
-146.847
  0
LINE
  5
A2B
330
A02
100
AcDbEntity
  8
Solid
100
AcDbLine
 10
-23.6008
 20
-16.9372
 30
0
 11
-23.6008
 21
-16.9372
 31
2
  0
LINE
  5
A2C
330
A02
100
AcDbEntity
  8
Solid
100
AcDbLine
 10
-27.9695
 20
-16.2218
 30
0
 11
-27.9695
 21
-16.2218
 31
2
  0
ARC
  5
A2D
330
A02
100
AcDbEntity
  8
Solid
100
AcDbCircle
 10
-25.4579
 20
-14.5811
 30
2
 40
3
100
AcDbArc
 50
-51.7549
 51
-146.847
  0
LINE
  5
A2E
330
A02
100
AcDbEntity
  8
Solid
100
AcDbLine
 10
-23.6008
 20
-16.9372
 30
0
 11
-23.6008
 21
-16.9372
 31
2
  0
ARC
  5
A2F
330
A02
100
AcDbEntity
  8
Solid
100
AcDbCircle
 10
-25.4579
 20
-14.5811
 30
0
 40
3
100
AcDbArc
 50
-51.7549
 51
-146.847
  0
ARC
  5
A30
330
A02
100
AcDbEntity
  8
Solid
100
AcDbCircle
 10
-28.8067
 20
-16.7687
 30
0
 40
1
100
AcDbArc
 50
-51.7549
 51
33.1534
  0
LINE
  5
A31
330
A02
100
AcDbEntity
  8
Solid
100
AcDbLine
 10
-27.9695
 20
-16.2218
 30
0
 11
-27.9695
 21
-16.2218
 31
2
  0
ARC
  5
A32
330
A02
100
AcDbEntity
  8
Solid
100
AcDbCircle
 10
-28.8067
 20
-16.7687
 30
2
 40
1
100
AcDbArc
 50
-51.7549
 51
33.1534
  0
LINE
  5
A33
330
A02
100
AcDbEntity
  8
Solid
100
AcDbLine
 10
-28.1877
 20
-17.554
 30
2
 11
-28.1877
 21
-17.554
 31
0
  0
LINE
  5
A34
330
A02
100
AcDbEntity
  8
Solid
100
AcDbLine
 10
-23.819
 20
-18.2695
 30
0
 11
-23.819
 21
-18.2695
 31
2
  0
ARC
  5
A35
330
A02
100
AcDbEntity
  8
Solid
100
AcDbCircle
 10
-26.3306
 20
-19.9101
 30
2
 40
3
100
AcDbArc
 50
128.245
 51
33.1534
  0
LINE
  5
A36
330
A02
100
AcDbEntity
  8
Solid
100
AcDbLine
 10
-28.1877
 20
-17.554
 30
2
 11
-28.1877
 21
-17.554
 31
0
  0
ARC
  5
A37
330
A02
100
AcDbEntity
  8
Solid
100
AcDbCircle
 10
-26.3306
 20
-19.9101
 30
0
 40
3
100
AcDbArc
 50
128.245
 51
33.1534
  0
LINE
  5
A38
330
A02
100
AcDbEntity
  8
Solid
100
AcDbLine
 10
-20.7036
 20
-27.9696
 30
0
 11
-20.7036
 21
-27.9696
 31
2
  0
ARC
  5
A39
330
A02
100
AcDbEntity
  8
Solid
100
AcDbCircle
 10
-22.3442
 20
-25.458
 30
2
 40
3
100
AcDbArc
 50
38.2451
 51
-56.8466
  0
LINE
  5
A3A
330
A02
100
AcDbEntity
  8
Solid
100
AcDbLine
 10
-19.9881
 20
-23.6009
 30
0
 11
-19.9881
 21
-23.6009
 31
2
  0
ARC
  5
A3B
330
A02
100
AcDbEntity
  8
Solid
100
AcDbCircle
 10
-22.3442
 20
-25.458
 30
0
 40
3
100
AcDbArc
 50
38.2451
 51
-56.8466
  0
ARC
  5
A3C
330
A02
100
AcDbEntity
  8
Solid
100
AcDbCircle
 10
-20.1567
 20
-28.8068
 30
0
 40
1
100
AcDbArc
 50
38.2451
 51
123.153
  0
LINE
  5
A3D
330
A02
100
AcDbEntity
  8
Solid
100
AcDbLine
 10
-20.7036
 20
-27.9696
 30
0
 11
-20.7036
 21
-27.9696
 31
2
  0
ARC
  5
A3E
330
A02
100
AcDbEntity
  8
Solid
100
AcDbCircle
 10
-20.1567
 20
-28.8068
 30
2
 40
1
100
AcDbArc
 50
38.2451
 51
123.153
  0
LINE
  5
A3F
330
A02
100
AcDbEntity
  8
Solid
100
AcDbLine
 10
-19.3713
 20
-28.1878
 30
0
 11
-19.3713
 21
-28.1878
 31
2
  0
LINE
  5
A40
330
A02
100
AcDbEntity
  8
Solid
100
AcDbLine
 10
-18.6559
 20
-23.8191
 30
2
 11
-18.6559
 21
-23.8191
 31
0
  0
ARC
  5
A41
330
A02
100
AcDbEntity
  8
Solid
100
AcDbCircle
 10
-17.0152
 20
-26.3307
 30
2
 40
3
100
AcDbArc
 50
-141.755
 51
123.153
  0
LINE
  5
A42
330
A02
100
AcDbEntity
  8
Solid
100
AcDbLine
 10
-19.3713
 20
-28.1878
 30
0
 11
-19.3713
 21
-28.1878
 31
2
  0
ARC
  5
A43
330
A02
100
AcDbEntity
  8
Solid
100
AcDbCircle
 10
-17.0152
 20
-26.3307
 30
0
 40
3
100
AcDbArc
 50
-141.755
 51
123.153
  0
ARC
  5
A44
330
A02
100
AcDbEntity
  8
Solid
100
AcDbCircle
 10
-19.2028
 20
-22.9818
 30
0
 40
1
100
AcDbArc
 50
-141.755
 51
-56.8466
  0
LINE
  5
A45
330
A02
100
AcDbEntity
  8
Solid
100
AcDbLine
 10
-18.6559
 20
-23.8191
 30
2
 11
-18.6559
 21
-23.8191
 31
0
  0
ARC
  5
A46
330
A02
100
AcDbEntity
  8
Solid
100
AcDbCircle
 10
-19.2028
 20
-22.9818
 30
2
 40
1
100
AcDbArc
 50
-141.755
 51
-56.8466
  0
LINE
  5
A47
330
A02
100
AcDbEntity
  8
Solid
100
AcDbLine
 10
-19.9881
 20
-23.6009
 30
0
 11
-19.9881
 21
-23.6009
 31
2
  0
ARC
  5
A48
330
A02
100
AcDbEntity
  8
Solid
100
AcDbCircle
 10
-17.0152
 20
-26.3307
 30
2
 40
3
100
AcDbArc
 50
-141.755
 51
123.153
  0
ARC
  5
A49
330
A02
100
AcDbEntity
  8
Solid
100
AcDbCircle
 10
-20.1567
 20
-28.8068
 30
2
 40
1
100
AcDbArc
 50
38.2451
 51
123.153
  0
ARC
  5
A4A
330
A02
100
AcDbEntity
  8
Solid
100
AcDbCircle
 10
-22.3442
 20
-25.458
 30
2
 40
3
100
AcDbArc
 50
38.2451
 51
-56.8466
  0
ARC
  5
A4B
330
A02
100
AcDbEntity
  8
Solid
100
AcDbCircle
 10
-19.2028
 20
-22.9818
 30
2
 40
1
100
AcDbArc
 50
-141.755
 51
-56.8466
  0
CIRCLE
  5
A4C
330
A02
100
AcDbEntity
  8
Solid
100
AcDbCircle
 10
-22.3442
 20
-25.458
 40
1.5
  0
CIRCLE
  5
A4D
330
A02
100
AcDbEntity
  8
Solid
100
AcDbCircle
 10
-17.0152
 20
-26.3307
 40
1.5
  0
ARC
  5
A4E
330
A02
100
AcDbEntity
  8
Solid
100
AcDbCircle
 10
-28.8067
 20
-16.7687
 30
2
 40
1
100
AcDbArc
 50
-51.7549
 51
33.1534
  0
ARC
  5
A4F
330
A02
100
AcDbEntity
  8
Solid
100
AcDbCircle
 10
-25.4579
 20
-14.5811
 30
2
 40
3
100
AcDbArc
 50
-51.7549
 51
-146.847
  0
ARC
  5
A50
330
A02
100
AcDbEntity
  8
Solid
100
AcDbCircle
 10
-22.9818
 20
-17.7226
 30
2
 40
1
100
AcDbArc
 50
128.245
 51
-146.847
  0
ARC
  5
A51
330
A02
100
AcDbEntity
  8
Solid
100
AcDbCircle
 10
-26.3306
 20
-19.9101
 30
2
 40
3
100
AcDbArc
 50
128.245
 51
33.1534
  0
CIRCLE
  5
A52
330
A02
100
AcDbEntity
  8
Solid
100
AcDbCircle
 10
-26.3306
 20
-19.9101
 40
1.5
  0
CIRCLE
  5
A53
330
A02
100
AcDbEntity
  8
Solid
100
AcDbCircle
 10
-25.4579
 20
-14.5811
 40
1.5
  0
ARC
  5
A54
330
A02
100
AcDbEntity
  8
Solid
100
AcDbCircle
 10
-8.11858
 20
-20.1568
 30
2
 40
1
100
AcDbArc
 50
128.245
 51
-146.847
  0
ARC
  5
A55
330
A02
100
AcDbEntity
  8
Solid
100
AcDbCircle
 10
-11.4674
 20
-22.3443
 30
2
 40
3
100
AcDbArc
 50
128.245
 51
33.1534
  0
ARC
  5
A56
330
A02
100
AcDbEntity
  8
Solid
100
AcDbCircle
 10
-13.9435
 20
-19.2028
 30
2
 40
1
100
AcDbArc
 50
-51.7549
 51
33.1534
  0
ARC
  5
A57
330
A02
100
AcDbEntity
  8
Solid
100
AcDbCircle
 10
-10.5947
 20
-17.0153
 30
2
 40
3
100
AcDbArc
 50
-51.7549
 51
-146.847
  0
CIRCLE
  5
A58
330
A02
100
AcDbEntity
  8
Solid
100
AcDbCircle
 10
-10.5947
 20
-17.0153
 40
1.5
  0
CIRCLE
  5
A59
330
A02
100
AcDbEntity
  8
Solid
100
AcDbCircle
 10
-11.4674
 20
-22.3443
 40
1.5
  0
ARC
  5
A5A
330
A02
100
AcDbEntity
  8
Solid
100
AcDbCircle
 10
-14.5811
 20
-11.4675
 30
2
 40
3
100
AcDbArc
 50
-141.755
 51
123.153
  0
ARC
  5
A5B
330
A02
100
AcDbEntity
  8
Solid
100
AcDbCircle
 10
-17.7226
 20
-13.9436
 30
2
 40
1
100
AcDbArc
 50
38.2451
 51
123.153
  0
ARC
  5
A5C
330
A02
100
AcDbEntity
  8
Solid
100
AcDbCircle
 10
-19.9101
 20
-10.5947
 30
2
 40
3
100
AcDbArc
 50
38.2451
 51
-56.8466
  0
ARC
  5
A5D
330
A02
100
AcDbEntity
  8
Solid
100
AcDbCircle
 10
-16.7686
 20
-8.11864
 30
2
 40
1
100
AcDbArc
 50
-141.755
 51
-56.8466
  0
CIRCLE
  5
A5E
330
A02
100
AcDbEntity
  8
Solid
100
AcDbCircle
 10
-14.5811
 20
-11.4675
 40
1.5
  0
CIRCLE
  5
A5F
330
A02
100
AcDbEntity
  8
Solid
100
AcDbCircle
 10
-19.9101
 20
-10.5947
 40
1.5
  0
ARC
  5
A60
330
A02
100
AcDbEntity
  8
Solid
100
AcDbCircle
 10
-32.4676
 20
1.02734
 30
5
 40
11
100
AcDbArc
 50
-77.9581
 51
-12.1242
  0
ARC
  5
A61
330
A02
100
AcDbEntity
  8
Solid
100
AcDbCircle
 10
-29.5468
 20
-12.6646
 30
5
 40
3
100
AcDbArc
 50
102.042
 51
162.897
  0
LINE
  5
A62
330
A02
100
AcDbEntity
  8
Solid
100
AcDbLine
 10
-32.4141
 20
-11.7823
 30
5
 11
-34.5114
 21
-18.5981
 31
5
  0
ARC
  5
A63
330
A02
100
AcDbEntity
  8
Solid
100
AcDbCircle
 10
-57.364
 20
-11.5663
 30
5
 40
23.91
100
AcDbArc
 50
-55.8941
 51
-17.1032
  0
ARC
  5
A64
330
A02
100
AcDbEntity
  8
Solid
100
AcDbCircle
 10
-405.686
 20
450.534
 30
5
 40
602.556
100
AcDbArc
 50
-59.1059
 51
-53.1069
  0
ARC
  5
A65
330
A02
100
AcDbEntity
  8
Solid
100
AcDbCircle
 10
-92.901
 20
-71.9513
 30
5
 40
6.4
100
AcDbArc
 50
122.101
 51
135.612
  0
LINE
  5
A66
330
A02
100
AcDbEntity
  8
Solid
100
AcDbLine
 10
-97.4745
 20
-67.4744
 30
5
 11
-99.3902
 21
-69.4315
 31
5
  0
ARC
  5
A67
330
A02
100
AcDbEntity
  8
Solid
100
AcDbCircle
 10
-167.994
 20
-2.27805
 30
5
 40
96
100
AcDbArc
 50
-51.4378
 51
-44.3881
  0
LINE
  5
A68
330
A02
100
AcDbEntity
  8
Solid
100
AcDbLine
 10
-108.151
 20
-77.3435
 30
5
 11
-108.151
 21
-81.4092
 31
5
  0
ARC
  5
A69
330
A02
100
AcDbEntity
  8
Solid
100
AcDbCircle
 10
-108.151
 20
-82.9092
 30
5
 40
1.5
100
AcDbArc
 50
-54.3043
 51
89.9999
  0
LINE
  5
A6A
330
A02
100
AcDbEntity
  8
Solid
100
AcDbLine
 10
-107.275
 20
-84.1274
 30
5
 11
-108.151
 21
-84.7562
 31
5
  0
LINE
  5
A6B
330
A02
100
AcDbEntity
  8
Solid
100
AcDbLine
 10
-108.151
 20
-84.7562
 30
5
 11
-108.151
 21
-87.2009
 31
5
  0
LINE
  5
A6C
330
A02
100
AcDbEntity
  8
Solid
100
AcDbLine
 10
-108.151
 20
-87.2009
 30
5
 11
-105.154
 21
-87.2009
 31
5
  0
ARC
  5
A6D
330
A02
100
AcDbEntity
  8
Solid
100
AcDbCircle
 10
-91.6392
 20
-101.579
 30
5
 40
19.7327
100
AcDbArc
 50
104.951
 51
133.227
  0
ARC
  5
A6E
330
A02
100
AcDbEntity
  8
Solid
100
AcDbCircle
 10
-98.1506
 20
-77.2009
 30
5
 40
5.5
100
AcDbArc
 50
-75.0306
 51
-46.0431
  0
ARC
  5
A6F
330
A02
100
AcDbEntity
  8
Solid
100
AcDbCircle
 10
-73.5095
 20
-102.756
 30
5
 40
30
100
AcDbArc
 50
122.19
 51
133.957
  0
ARC
  5
A70
330
A02
100
AcDbEntity
  8
Solid
100
AcDbCircle
 10
-92.901
 20
-71.9513
 30
5
 40
6.4
100
AcDbArc
 50
-57.8096
 51
-50.7015
  0
ARC
  5
A71
330
A02
100
AcDbEntity
  8
Solid
100
AcDbCircle
 10
302.522
 20
-535.056
 30
5
 40
602.556
100
AcDbArc
 50
124.506
 51
130.505
  0
ARC
  5
A72
330
A02
100
AcDbEntity
  8
Solid
100
AcDbCircle
 10
-24.3348
 20
-57.5325
 30
5
 40
23.9107
100
AcDbArc
 50
88.5027
 51
127.293
  0
LINE
  5
A73
330
A02
100
AcDbEntity
  8
Solid
100
AcDbLine
 10
-23.71
 20
-33.6299
 30
5
 11
-16.5812
 21
-33.8163
 31
5
  0
ARC
  5
A74
330
A02
100
AcDbEntity
  8
Solid
100
AcDbCircle
 10
-16.5029
 20
-30.8173
 30
5
 40
3
100
AcDbArc
 50
-91.4973
 51
-30.6423
  0
ARC
  5
A75
330
A02
100
AcDbEntity
  8
Solid
100
AcDbCircle
 10
-4.45774
 20
-37.9528
 30
5
 40
11
100
AcDbArc
 50
83.5237
 51
149.358
  0
ARC
  5
A76
330
A02
100
AcDbEntity
  8
Solid
100
AcDbCircle
 10
-2.87866
 20
-24.0421
 30
5
 40
3
100
AcDbArc
 50
-96.4763
 51
17.2934
  0
ARC
  5
A77
330
A02
100
AcDbEntity
  8
Solid
100
AcDbCircle
 10
23.8556
 20
-15.7187
 30
5
 40
25
100
AcDbArc
 50
162.344
 51
-162.707
  0
ARC
  5
A78
330
A02
100
AcDbEntity
  8
Solid
100
AcDbCircle
 10
-2.82548
 20
-7.22635
 30
5
 40
3
100
AcDbArc
 50
-17.6558
 51
89.0554
  0
ARC
  5
A79
330
A02
100
AcDbEntity
  8
Solid
100
AcDbCircle
 10
-2.36386
 20
20.7698
 30
5
 40
25
100
AcDbArc
 50
-125.894
 51
-90.9446
  0
ARC
  5
A7A
330
A02
100
AcDbEntity
  8
Solid
100
AcDbCircle
 10
-18.7798
 20
-1.91309
 30
5
 40
3
100
AcDbArc
 50
54.1062
 51
167.876
  0
CIRCLE
  5
A7B
330
A02
100
AcDbEntity
  8
Solid
100
AcDbCircle
 10
-11.4674
 20
-22.3443
 40
1.5
  0
CIRCLE
  5
A7C
330
A02
100
AcDbEntity
  8
Solid
100
AcDbCircle
 10
-10.5947
 20
-17.0153
 40
1.5
  0
CIRCLE
  5
A7D
330
A02
100
AcDbEntity
  8
Solid
100
AcDbCircle
 10
-17.0152
 20
-26.3307
 40
1.5
  0
CIRCLE
  5
A7E
330
A02
100
AcDbEntity
  8
Solid
100
AcDbCircle
 10
-22.3442
 20
-25.458
 40
1.5
  0
CIRCLE
  5
A7F
330
A02
100
AcDbEntity
  8
Solid
100
AcDbCircle
 10
-92.9006
 20
-71.9511
 40
1.5
  0
CIRCLE
  5
A80
330
A02
100
AcDbEntity
  8
Solid
100
AcDbCircle
 10
-18.4627
 20
-18.4627
 40
3.5
  0
CIRCLE
  5
A81
330
A02
100
AcDbEntity
  8
Solid
100
AcDbCircle
 10
-98.1506
 20
-77.2009
 40
1.5
  0
CIRCLE
  5
A82
330
A02
100
AcDbEntity
  8
Solid
100
AcDbCircle
 10
-3.84511
 20
-7.95903
 40
1.5
  0
CIRCLE
  5
A83
330
A02
100
AcDbEntity
  8
Solid
100
AcDbCircle
 10
-33.0802
 20
-28.9664
 40
1.5
  0
CIRCLE
  5
A84
330
A02
100
AcDbEntity
  8
Solid
100
AcDbCircle
 10
-26.3306
 20
-19.9101
 40
1.5
  0
CIRCLE
  5
A85
330
A02
100
AcDbEntity
  8
Solid
100
AcDbCircle
 10
-25.4579
 20
-14.5811
 40
1.5
  0
CIRCLE
  5
A86
330
A02
100
AcDbEntity
  8
Solid
100
AcDbCircle
 10
-14.5811
 20
-11.4675
 40
1.5
  0
CIRCLE
  5
A87
330
A02
100
AcDbEntity
  8
Solid
100
AcDbCircle
 10
-19.9101
 20
-10.5947
 40
1.5
  0
ARC
  5
A88
330
A02
100
AcDbEntity
  8
Solid
100
AcDbCircle
 10
-24.3348
 20
-57.5325
 30
0
 40
23.9107
100
AcDbArc
 50
88.5027
 51
127.293
  0
LINE
  5
A89
330
A02
100
AcDbEntity
  8
Solid
100
AcDbLine
 10
-38.822
 20
-38.5103
 30
0
 11
-38.822
 21
-38.5103
 31
5
  0
ARC
  5
A8A
330
A02
100
AcDbEntity
  8
Solid
100
AcDbCircle
 10
-24.3348
 20
-57.5325
 30
5
 40
23.9107
100
AcDbArc
 50
88.5027
 51
127.293
  0
LINE
  5
A8B
330
A02
100
AcDbEntity
  8
Solid
100
AcDbLine
 10
-23.71
 20
-33.6299
 30
0
 11
-23.71
 21
-33.6299
 31
5
  0
LINE
  5
A8C
330
A02
100
AcDbEntity
  8
Solid
100
AcDbLine
 10
-16.5812
 20
-33.8163
 30
0
 11
-16.5812
 21
-33.8163
 31
5
  0
LINE
  5
A8D
330
A02
100
AcDbEntity
  8
Solid
100
AcDbLine
 10
-23.71
 20
-33.6299
 30
5
 11
-16.5812
 21
-33.8163
 31
5
  0
LINE
  5
A8E
330
A02
100
AcDbEntity
  8
Solid
100
AcDbLine
 10
-23.71
 20
-33.6299
 30
0
 11
-23.71
 21
-33.6299
 31
5
  0
LINE
  5
A8F
330
A02
100
AcDbEntity
  8
Solid
100
AcDbLine
 10
-23.71
 20
-33.6299
 30
0
 11
-16.5812
 21
-33.8163
 31
0
  0
LINE
  5
A90
330
A02
100
AcDbEntity
  8
Solid
100
AcDbLine
 10
-13.9218
 20
-32.3463
 30
0
 11
-13.9218
 21
-32.3463
 31
5
  0
ARC
  5
A91
330
A02
100
AcDbEntity
  8
Solid
100
AcDbCircle
 10
-16.5029
 20
-30.8173
 30
5
 40
3
100
AcDbArc
 50
-91.4973
 51
-30.6423
  0
LINE
  5
A92
330
A02
100
AcDbEntity
  8
Solid
100
AcDbLine
 10
-16.5812
 20
-33.8163
 30
0
 11
-16.5812
 21
-33.8163
 31
5
  0
ARC
  5
A93
330
A02
100
AcDbEntity
  8
Solid
100
AcDbCircle
 10
-16.5029
 20
-30.8173
 30
0
 40
3
100
AcDbArc
 50
-91.4973
 51
-30.6423
  0
ARC
  5
A94
330
A02
100
AcDbEntity
  8
Solid
100
AcDbCircle
 10
-4.45774
 20
-37.9528
 30
0
 40
11
100
AcDbArc
 50
83.5237
 51
149.358
  0
LINE
  5
A95
330
A02
100
AcDbEntity
  8
Solid
100
AcDbLine
 10
-13.9218
 20
-32.3463
 30
0
 11
-13.9218
 21
-32.3463
 31
5
  0
ARC
  5
A96
330
A02
100
AcDbEntity
  8
Solid
100
AcDbCircle
 10
-4.45774
 20
-37.9528
 30
5
 40
11
100
AcDbArc
 50
83.5237
 51
149.358
  0
LINE
  5
A97
330
A02
100
AcDbEntity
  8
Solid
100
AcDbLine
 10
-3.21703
 20
-27.023
 30
0
 11
-3.21703
 21
-27.023
 31
5
  0
LINE
  5
A98
330
A02
100
AcDbEntity
  8
Solid
100
AcDbLine
 10
-0.0142708
 20
-23.1503
 30
0
 11
-0.0142708
 21
-23.1503
 31
5
  0
ARC
  5
A99
330
A02
100
AcDbEntity
  8
Solid
100
AcDbCircle
 10
-2.87866
 20
-24.0421
 30
5
 40
3
100
AcDbArc
 50
-96.4763
 51
17.2934
  0
LINE
  5
A9A
330
A02
100
AcDbEntity
  8
Solid
100
AcDbLine
 10
-3.21703
 20
-27.023
 30
0
 11
-3.21703
 21
-27.023
 31
5
  0
ARC
  5
A9B
330
A02
100
AcDbEntity
  8
Solid
100
AcDbCircle
 10
-2.87866
 20
-24.0421
 30
0
 40
3
100
AcDbArc
 50
-96.4763
 51
17.2934
  0
ARC
  5
A9C
330
A02
100
AcDbEntity
  8
Solid
100
AcDbCircle
 10
23.8556
 20
-15.7187
 30
0
 40
25
100
AcDbArc
 50
162.344
 51
-162.707
  0
LINE
  5
A9D
330
A02
100
AcDbEntity
  8
Solid
100
AcDbLine
 10
-0.0142708
 20
-23.1503
 30
0
 11
-0.0142708
 21
-23.1503
 31
5
  0
ARC
  5
A9E
330
A02
100
AcDbEntity
  8
Solid
100
AcDbCircle
 10
23.8556
 20
-15.7187
 30
5
 40
25
100
AcDbArc
 50
162.344
 51
-162.707
  0
LINE
  5
A9F
330
A02
100
AcDbEntity
  8
Solid
100
AcDbLine
 10
0.033209
 20
-8.13624
 30
0
 11
0.033209
 21
-8.13624
 31
5
  0
LINE
  5
AA0
330
A02
100
AcDbEntity
  8
Solid
100
AcDbLine
 10
-2.77602
 20
-4.22676
 30
0
 11
-2.77602
 21
-4.22676
 31
5
  0
ARC
  5
AA1
330
A02
100
AcDbEntity
  8
Solid
100
AcDbCircle
 10
-2.82548
 20
-7.22635
 30
5
 40
3
100
AcDbArc
 50
-17.6558
 51
89.0554
  0
LINE
  5
AA2
330
A02
100
AcDbEntity
  8
Solid
100
AcDbLine
 10
0.033209
 20
-8.13624
 30
0
 11
0.033209
 21
-8.13624
 31
5
  0
ARC
  5
AA3
330
A02
100
AcDbEntity
  8
Solid
100
AcDbCircle
 10
-2.82548
 20
-7.22635
 30
0
 40
3
100
AcDbArc
 50
-17.6558
 51
89.0554
  0
ARC
  5
AA4
330
A02
100
AcDbEntity
  8
Solid
100
AcDbCircle
 10
-2.36386
 20
20.7698
 30
0
 40
25
100
AcDbArc
 50
-125.894
 51
-90.9446
  0
LINE
  5
AA5
330
A02
100
AcDbEntity
  8
Solid
100
AcDbLine
 10
-2.77602
 20
-4.22676
 30
0
 11
-2.77602
 21
-4.22676
 31
5
  0
ARC
  5
AA6
330
A02
100
AcDbEntity
  8
Solid
100
AcDbCircle
 10
-2.36386
 20
20.7698
 30
5
 40
25
100
AcDbArc
 50
-125.894
 51
-90.9446
  0
LINE
  5
AA7
330
A02
100
AcDbEntity
  8
Solid
100
AcDbLine
 10
-17.021
 20
0.517228
 30
0
 11
-17.021
 21
0.517228
 31
5
  0
LINE
  5
AA8
330
A02
100
AcDbEntity
  8
Solid
100
AcDbLine
 10
-21.7129
 20
-1.28299
 30
0
 11
-21.7129
 21
-1.28299
 31
5
  0
ARC
  5
AA9
330
A02
100
AcDbEntity
  8
Solid
100
AcDbCircle
 10
-18.7798
 20
-1.91309
 30
5
 40
3
100
AcDbArc
 50
54.1062
 51
167.876
  0
LINE
  5
AAA
330
A02
100
AcDbEntity
  8
Solid
100
AcDbLine
 10
-17.021
 20
0.517228
 30
0
 11
-17.021
 21
0.517228
 31
5
  0
ARC
  5
AAB
330
A02
100
AcDbEntity
  8
Solid
100
AcDbCircle
 10
-18.7798
 20
-1.91309
 30
0
 40
3
100
AcDbArc
 50
54.1062
 51
167.876
  0
ARC
  5
AAC
330
A02
100
AcDbEntity
  8
Solid
100
AcDbCircle
 10
-32.4676
 20
1.02734
 30
0
 40
11
100
AcDbArc
 50
-77.9581
 51
-12.1242
  0
LINE
  5
AAD
330
A02
100
AcDbEntity
  8
Solid
100
AcDbLine
 10
-21.7129
 20
-1.28299
 30
0
 11
-21.7129
 21
-1.28299
 31
5
  0
ARC
  5
AAE
330
A02
100
AcDbEntity
  8
Solid
100
AcDbCircle
 10
-32.4676
 20
1.02734
 30
5
 40
11
100
AcDbArc
 50
-77.9581
 51
-12.1242
  0
LINE
  5
AAF
330
A02
100
AcDbEntity
  8
Solid
100
AcDbLine
 10
-30.1727
 20
-9.7306
 30
0
 11
-30.1727
 21
-9.7306
 31
5
  0
LINE
  5
AB0
330
A02
100
AcDbEntity
  8
Solid
100
AcDbLine
 10
-32.4141
 20
-11.7823
 30
0
 11
-32.4141
 21
-11.7823
 31
5
  0
ARC
  5
AB1
330
A02
100
AcDbEntity
  8
Solid
100
AcDbCircle
 10
-29.5468
 20
-12.6646
 30
5
 40
3
100
AcDbArc
 50
102.042
 51
162.897
  0
LINE
  5
AB2
330
A02
100
AcDbEntity
  8
Solid
100
AcDbLine
 10
-30.1727
 20
-9.7306
 30
0
 11
-30.1727
 21
-9.7306
 31
5
  0
ARC
  5
AB3
330
A02
100
AcDbEntity
  8
Solid
100
AcDbCircle
 10
-29.5468
 20
-12.6646
 30
0
 40
3
100
AcDbArc
 50
102.042
 51
162.897
  0
LINE
  5
AB4
330
A02
100
AcDbEntity
  8
Solid
100
AcDbLine
 10
-34.5114
 20
-18.5981
 30
0
 11
-34.5114
 21
-18.5981
 31
5
  0
LINE
  5
AB5
330
A02
100
AcDbEntity
  8
Solid
100
AcDbLine
 10
-32.4141
 20
-11.7823
 30
5
 11
-34.5114
 21
-18.5981
 31
5
  0
LINE
  5
AB6
330
A02
100
AcDbEntity
  8
Solid
100
AcDbLine
 10
-32.4141
 20
-11.7823
 30
0
 11
-32.4141
 21
-11.7823
 31
5
  0
LINE
  5
AB7
330
A02
100
AcDbEntity
  8
Solid
100
AcDbLine
 10
-32.4141
 20
-11.7823
 30
0
 11
-34.5114
 21
-18.5981
 31
0
  0
ARC
  5
AB8
330
A02
100
AcDbEntity
  8
Solid
100
AcDbCircle
 10
-57.364
 20
-11.5663
 30
0
 40
23.91
100
AcDbArc
 50
-55.8941
 51
-17.1032
  0
LINE
  5
AB9
330
A02
100
AcDbEntity
  8
Solid
100
AcDbLine
 10
-34.5114
 20
-18.5981
 30
0
 11
-34.5114
 21
-18.5981
 31
5
  0
ARC
  5
ABA
330
A02
100
AcDbEntity
  8
Solid
100
AcDbCircle
 10
-57.364
 20
-11.5663
 30
5
 40
23.91
100
AcDbArc
 50
-55.8941
 51
-17.1032
  0
LINE
  5
ABB
330
A02
100
AcDbEntity
  8
Solid
100
AcDbLine
 10
-43.9571
 20
-31.3639
 30
0
 11
-43.9571
 21
-31.3639
 31
5
  0
LINE
  5
ABC
330
A02
100
AcDbEntity
  8
Solid
100
AcDbLine
 10
-31.5802
 20
-28.9664
 30
0
 11
-31.5802
 21
-28.9664
 31
5
  0
CIRCLE
  5
ABD
330
A02
100
AcDbEntity
  8
Solid
100
AcDbCircle
 10
-33.0802
 20
-28.9664
 40
1.5
  0
LINE
  5
ABE
330
A02
100
AcDbEntity
  8
Solid
100
AcDbLine
 10
-31.5802
 20
-28.9664
 30
0
 11
-31.5802
 21
-28.9664
 31
5
  0
CIRCLE
  5
ABF
330
A02
100
AcDbEntity
  8
Solid
100
AcDbCircle
 10
-33.0802
 20
-28.9664
 40
1.5
  0
LINE
  5
AC0
330
A02
100
AcDbEntity
  8
Solid
100
AcDbLine
 10
-2.34511
 20
-7.95903
 30
0
 11
-2.34511
 21
-7.95903
 31
5
  0
CIRCLE
  5
AC1
330
A02
100
AcDbEntity
  8
Solid
100
AcDbCircle
 10
-3.84511
 20
-7.95903
 40
1.5
  0
LINE
  5
AC2
330
A02
100
AcDbEntity
  8
Solid
100
AcDbLine
 10
-2.34511
 20
-7.95903
 30
0
 11
-2.34511
 21
-7.95903
 31
5
  0
CIRCLE
  5
AC3
330
A02
100
AcDbEntity
  8
Solid
100
AcDbCircle
 10
-3.84511
 20
-7.95903
 40
1.5
  0
LINE
  5
AC4
330
A02
100
AcDbEntity
  8
Solid
100
AcDbLine
 10
-14.9627
 20
-18.4627
 30
0
 11
-14.9627
 21
-18.4627
 31
5
  0
CIRCLE
  5
AC5
330
A02
100
AcDbEntity
  8
Solid
100
AcDbCircle
 10
-18.4627
 20
-18.4627
 40
3.5
  0
LINE
  5
AC6
330
A02
100
AcDbEntity
  8
Solid
100
AcDbLine
 10
-14.9627
 20
-18.4627
 30
0
 11
-14.9627
 21
-18.4627
 31
5
  0
CIRCLE
  5
AC7
330
A02
100
AcDbEntity
  8
Solid
100
AcDbCircle
 10
-18.4627
 20
-18.4627
 40
3.5
  0
LINE
  5
AC8
330
A02
100
AcDbEntity
  8
Solid
100
AcDbLine
 10
-96.6506
 20
-77.2009
 30
0
 11
-96.6506
 21
-77.2009
 31
5
  0
CIRCLE
  5
AC9
330
A02
100
AcDbEntity
  8
Solid
100
AcDbCircle
 10
-98.1506
 20
-77.2009
 40
1.5
  0
LINE
  5
ACA
330
A02
100
AcDbEntity
  8
Solid
100
AcDbLine
 10
-96.6506
 20
-77.2009
 30
0
 11
-96.6506
 21
-77.2009
 31
5
  0
CIRCLE
  5
ACB
330
A02
100
AcDbEntity
  8
Solid
100
AcDbCircle
 10
-98.1506
 20
-77.2009
 40
1.5
  0
LINE
  5
ACC
330
A02
100
AcDbEntity
  8
Solid
100
AcDbLine
 10
-13.0811
 20
-11.4675
 30
2
 11
-13.0811
 21
-11.4675
 31
5
  0
CIRCLE
  5
ACD
330
A02
100
AcDbEntity
  8
Solid
100
AcDbCircle
 10
-14.5811
 20
-11.4675
 40
1.5
  0
LINE
  5
ACE
330
A02
100
AcDbEntity
  8
Solid
100
AcDbLine
 10
-13.0811
 20
-11.4675
 30
2
 11
-13.0811
 21
-11.4675
 31
5
  0
CIRCLE
  5
ACF
330
A02
100
AcDbEntity
  8
Solid
100
AcDbCircle
 10
-14.5811
 20
-11.4675
 40
1.5
  0
LINE
  5
AD0
330
A02
100
AcDbEntity
  8
Solid
100
AcDbLine
 10
-20.8442
 20
-25.458
 30
2
 11
-20.8442
 21
-25.458
 31
5
  0
CIRCLE
  5
AD1
330
A02
100
AcDbEntity
  8
Solid
100
AcDbCircle
 10
-22.3442
 20
-25.458
 40
1.5
  0
LINE
  5
AD2
330
A02
100
AcDbEntity
  8
Solid
100
AcDbLine
 10
-20.8442
 20
-25.458
 30
2
 11
-20.8442
 21
-25.458
 31
5
  0
CIRCLE
  5
AD3
330
A02
100
AcDbEntity
  8
Solid
100
AcDbCircle
 10
-22.3442
 20
-25.458
 40
1.5
  0
LINE
  5
AD4
330
A02
100
AcDbEntity
  8
Solid
100
AcDbLine
 10
-15.5152
 20
-26.3307
 30
2
 11
-15.5152
 21
-26.3307
 31
5
  0
CIRCLE
  5
AD5
330
A02
100
AcDbEntity
  8
Solid
100
AcDbCircle
 10
-17.0152
 20
-26.3307
 40
1.5
  0
LINE
  5
AD6
330
A02
100
AcDbEntity
  8
Solid
100
AcDbLine
 10
-15.5152
 20
-26.3307
 30
2
 11
-15.5152
 21
-26.3307
 31
5
  0
CIRCLE
  5
AD7
330
A02
100
AcDbEntity
  8
Solid
100
AcDbCircle
 10
-17.0152
 20
-26.3307
 40
1.5
  0
LINE
  5
AD8
330
A02
100
AcDbEntity
  8
Solid
100
AcDbLine
 10
-91.4006
 20
-71.9511
 30
0
 11
-91.4006
 21
-71.9511
 31
5
  0
CIRCLE
  5
AD9
330
A02
100
AcDbEntity
  8
Solid
100
AcDbCircle
 10
-92.9006
 20
-71.9511
 40
1.5
  0
LINE
  5
ADA
330
A02
100
AcDbEntity
  8
Solid
100
AcDbLine
 10
-91.4006
 20
-71.9511
 30
0
 11
-91.4006
 21
-71.9511
 31
5
  0
CIRCLE
  5
ADB
330
A02
100
AcDbEntity
  8
Solid
100
AcDbCircle
 10
-92.9006
 20
-71.9511
 40
1.5
  0
LINE
  5
ADC
330
A02
100
AcDbEntity
  8
Solid
100
AcDbLine
 10
-9.09469
 20
-17.0153
 30
2
 11
-9.09469
 21
-17.0153
 31
5
  0
CIRCLE
  5
ADD
330
A02
100
AcDbEntity
  8
Solid
100
AcDbCircle
 10
-10.5947
 20
-17.0153
 40
1.5
  0
LINE
  5
ADE
330
A02
100
AcDbEntity
  8
Solid
100
AcDbLine
 10
-9.09469
 20
-17.0153
 30
2
 11
-9.09469
 21
-17.0153
 31
5
  0
CIRCLE
  5
ADF
330
A02
100
AcDbEntity
  8
Solid
100
AcDbCircle
 10
-10.5947
 20
-17.0153
 40
1.5
  0
LINE
  5
AE0
330
A02
100
AcDbEntity
  8
Solid
100
AcDbLine
 10
-18.4101
 20
-10.5947
 30
2
 11
-18.4101
 21
-10.5947
 31
5
  0
CIRCLE
  5
AE1
330
A02
100
AcDbEntity
  8
Solid
100
AcDbCircle
 10
-19.9101
 20
-10.5947
 40
1.5
  0
LINE
  5
AE2
330
A02
100
AcDbEntity
  8
Solid
100
AcDbLine
 10
-18.4101
 20
-10.5947
 30
2
 11
-18.4101
 21
-10.5947
 31
5
  0
CIRCLE
  5
AE3
330
A02
100
AcDbEntity
  8
Solid
100
AcDbCircle
 10
-19.9101
 20
-10.5947
 40
1.5
  0
LINE
  5
AE4
330
A02
100
AcDbEntity
  8
Solid
100
AcDbLine
 10
-24.8306
 20
-19.9101
 30
2
 11
-24.8306
 21
-19.9101
 31
5
  0
CIRCLE
  5
AE5
330
A02
100
AcDbEntity
  8
Solid
100
AcDbCircle
 10
-26.3306
 20
-19.9101
 40
1.5
  0
LINE
  5
AE6
330
A02
100
AcDbEntity
  8
Solid
100
AcDbLine
 10
-24.8306
 20
-19.9101
 30
2
 11
-24.8306
 21
-19.9101
 31
5
  0
CIRCLE
  5
AE7
330
A02
100
AcDbEntity
  8
Solid
100
AcDbCircle
 10
-26.3306
 20
-19.9101
 40
1.5
  0
LINE
  5
AE8
330
A02
100
AcDbEntity
  8
Solid
100
AcDbLine
 10
-9.96742
 20
-22.3443
 30
2
 11
-9.96742
 21
-22.3443
 31
5
  0
CIRCLE
  5
AE9
330
A02
100
AcDbEntity
  8
Solid
100
AcDbCircle
 10
-11.4674
 20
-22.3443
 40
1.5
  0
LINE
  5
AEA
330
A02
100
AcDbEntity
  8
Solid
100
AcDbLine
 10
-9.96742
 20
-22.3443
 30
2
 11
-9.96742
 21
-22.3443
 31
5
  0
CIRCLE
  5
AEB
330
A02
100
AcDbEntity
  8
Solid
100
AcDbCircle
 10
-11.4674
 20
-22.3443
 40
1.5
  0
LINE
  5
AEC
330
A02
100
AcDbEntity
  8
Solid
100
AcDbLine
 10
-23.9579
 20
-14.5811
 30
2
 11
-23.9579
 21
-14.5811
 31
5
  0
CIRCLE
  5
AED
330
A02
100
AcDbEntity
  8
Solid
100
AcDbCircle
 10
-25.4579
 20
-14.5811
 40
1.5
  0
LINE
  5
AEE
330
A02
100
AcDbEntity
  8
Solid
100
AcDbLine
 10
-23.9579
 20
-14.5811
 30
2
 11
-23.9579
 21
-14.5811
 31
5
  0
CIRCLE
  5
AEF
330
A02
100
AcDbEntity
  8
Solid
100
AcDbCircle
 10
-25.4579
 20
-14.5811
 40
1.5
  0
LINE
  5
AF0
330
A02
100
AcDbEntity
  8
Solid
100
AcDbLine
 10
-88.8475
 20
-76.904
 30
0
 11
-88.8475
 21
-76.904
 31
5
  0
ARC
  5
AF1
330
A02
100
AcDbEntity
  8
Solid
100
AcDbCircle
 10
302.522
 20
-535.056
 30
5
 40
602.556
100
AcDbArc
 50
124.506
 51
130.505
  0
LINE
  5
AF2
330
A02
100
AcDbEntity
  8
Solid
100
AcDbLine
 10
-38.822
 20
-38.5103
 30
0
 11
-38.822
 21
-38.5103
 31
5
  0
ARC
  5
AF3
330
A02
100
AcDbEntity
  8
Solid
100
AcDbCircle
 10
302.522
 20
-535.056
 30
0
 40
602.556
100
AcDbArc
 50
124.506
 51
130.505
  0
ARC
  5
AF4
330
A02
100
AcDbEntity
  8
Solid
100
AcDbCircle
 10
-92.901
 20
-71.9513
 30
0
 40
6.4
100
AcDbArc
 50
-57.8096
 51
-50.7015
  0
LINE
  5
AF5
330
A02
100
AcDbEntity
  8
Solid
100
AcDbLine
 10
-88.8475
 20
-76.904
 30
0
 11
-88.8475
 21
-76.904
 31
5
  0
ARC
  5
AF6
330
A02
100
AcDbEntity
  8
Solid
100
AcDbCircle
 10
-92.901
 20
-71.9513
 30
5
 40
6.4
100
AcDbArc
 50
-57.8096
 51
-50.7015
  0
LINE
  5
AF7
330
A02
100
AcDbEntity
  8
Solid
100
AcDbLine
 10
-89.4915
 20
-77.3675
 30
0
 11
-89.4915
 21
-77.3675
 31
5
  0
LINE
  5
AF8
330
A02
100
AcDbEntity
  8
Solid
100
AcDbLine
 10
-94.333
 20
-81.1602
 30
0
 11
-94.333
 21
-81.1602
 31
5
  0
ARC
  5
AF9
330
A02
100
AcDbEntity
  8
Solid
100
AcDbCircle
 10
-73.5095
 20
-102.756
 30
5
 40
30
100
AcDbArc
 50
122.19
 51
133.957
  0
LINE
  5
AFA
330
A02
100
AcDbEntity
  8
Solid
100
AcDbLine
 10
-89.4915
 20
-77.3675
 30
0
 11
-89.4915
 21
-77.3675
 31
5
  0
ARC
  5
AFB
330
A02
100
AcDbEntity
  8
Solid
100
AcDbCircle
 10
-73.5095
 20
-102.756
 30
0
 40
30
100
AcDbArc
 50
122.19
 51
133.957
  0
ARC
  5
AFC
330
A02
100
AcDbEntity
  8
Solid
100
AcDbCircle
 10
-98.1506
 20
-77.2009
 30
0
 40
5.5
100
AcDbArc
 50
-75.0306
 51
-46.0431
  0
LINE
  5
AFD
330
A02
100
AcDbEntity
  8
Solid
100
AcDbLine
 10
-94.333
 20
-81.1602
 30
0
 11
-94.333
 21
-81.1602
 31
5
  0
ARC
  5
AFE
330
A02
100
AcDbEntity
  8
Solid
100
AcDbCircle
 10
-98.1506
 20
-77.2009
 30
5
 40
5.5
100
AcDbArc
 50
-75.0306
 51
-46.0431
  0
LINE
  5
AFF
330
A02
100
AcDbEntity
  8
Solid
100
AcDbLine
 10
-96.7299
 20
-82.5143
 30
0
 11
-96.7299
 21
-82.5143
 31
5
  0
LINE
  5
B00
330
A02
100
AcDbEntity
  8
Solid
100
AcDbLine
 10
-105.154
 20
-87.2009
 30
0
 11
-105.154
 21
-87.2009
 31
5
  0
ARC
  5
B01
330
A02
100
AcDbEntity
  8
Solid
100
AcDbCircle
 10
-91.6392
 20
-101.579
 30
5
 40
19.7327
100
AcDbArc
 50
104.951
 51
133.227
  0
LINE
  5
B02
330
A02
100
AcDbEntity
  8
Solid
100
AcDbLine
 10
-96.7299
 20
-82.5143
 30
0
 11
-96.7299
 21
-82.5143
 31
5
  0
ARC
  5
B03
330
A02
100
AcDbEntity
  8
Solid
100
AcDbCircle
 10
-91.6392
 20
-101.579
 30
0
 40
19.7327
100
AcDbArc
 50
104.951
 51
133.227
  0
LINE
  5
B04
330
A02
100
AcDbEntity
  8
Solid
100
AcDbLine
 10
-108.151
 20
-87.2009
 30
0
 11
-105.154
 21
-87.2009
 31
0
  0
LINE
  5
B05
330
A02
100
AcDbEntity
  8
Solid
100
AcDbLine
 10
-105.154
 20
-87.2009
 30
0
 11
-105.154
 21
-87.2009
 31
5
  0
LINE
  5
B06
330
A02
100
AcDbEntity
  8
Solid
100
AcDbLine
 10
-108.151
 20
-87.2009
 30
5
 11
-105.154
 21
-87.2009
 31
5
  0
LINE
  5
B07
330
A02
100
AcDbEntity
  8
Solid
100
AcDbLine
 10
-108.151
 20
-87.2009
 30
0
 11
-108.151
 21
-87.2009
 31
5
  0
LINE
  5
B08
330
A02
100
AcDbEntity
  8
Solid
100
AcDbLine
 10
-108.151
 20
-84.7562
 30
0
 11
-108.151
 21
-87.2009
 31
0
  0
LINE
  5
B09
330
A02
100
AcDbEntity
  8
Solid
100
AcDbLine
 10
-108.151
 20
-87.2009
 30
0
 11
-108.151
 21
-87.2009
 31
5
  0
LINE
  5
B0A
330
A02
100
AcDbEntity
  8
Solid
100
AcDbLine
 10
-108.151
 20
-84.7562
 30
5
 11
-108.151
 21
-87.2009
 31
5
  0
LINE
  5
B0B
330
A02
100
AcDbEntity
  8
Solid
100
AcDbLine
 10
-108.151
 20
-84.7562
 30
0
 11
-108.151
 21
-84.7562
 31
5
  0
LINE
  5
B0C
330
A02
100
AcDbEntity
  8
Solid
100
AcDbLine
 10
-107.275
 20
-84.1274
 30
0
 11
-108.151
 21
-84.7562
 31
0
  0
LINE
  5
B0D
330
A02
100
AcDbEntity
  8
Solid
100
AcDbLine
 10
-108.151
 20
-84.7562
 30
0
 11
-108.151
 21
-84.7562
 31
5
  0
LINE
  5
B0E
330
A02
100
AcDbEntity
  8
Solid
100
AcDbLine
 10
-107.275
 20
-84.1274
 30
5
 11
-108.151
 21
-84.7562
 31
5
  0
LINE
  5
B0F
330
A02
100
AcDbEntity
  8
Solid
100
AcDbLine
 10
-107.275
 20
-84.1274
 30
0
 11
-107.275
 21
-84.1274
 31
5
  0
LINE
  5
B10
330
A02
100
AcDbEntity
  8
Solid
100
AcDbLine
 10
-108.151
 20
-81.4092
 30
0
 11
-108.151
 21
-81.4092
 31
5
  0
ARC
  5
B11
330
A02
100
AcDbEntity
  8
Solid
100
AcDbCircle
 10
-108.151
 20
-82.9092
 30
5
 40
1.5
100
AcDbArc
 50
-54.3043
 51
89.9999
  0
LINE
  5
B12
330
A02
100
AcDbEntity
  8
Solid
100
AcDbLine
 10
-107.275
 20
-84.1274
 30
0
 11
-107.275
 21
-84.1274
 31
5
  0
ARC
  5
B13
330
A02
100
AcDbEntity
  8
Solid
100
AcDbCircle
 10
-108.151
 20
-82.9092
 30
0
 40
1.5
100
AcDbArc
 50
-54.3043
 51
89.9999
  0
LINE
  5
B14
330
A02
100
AcDbEntity
  8
Solid
100
AcDbLine
 10
-108.151
 20
-77.3435
 30
0
 11
-108.151
 21
-81.4092
 31
0
  0
LINE
  5
B15
330
A02
100
AcDbEntity
  8
Solid
100
AcDbLine
 10
-108.151
 20
-81.4092
 30
0
 11
-108.151
 21
-81.4092
 31
5
  0
LINE
  5
B16
330
A02
100
AcDbEntity
  8
Solid
100
AcDbLine
 10
-108.151
 20
-77.3435
 30
5
 11
-108.151
 21
-81.4092
 31
5
  0
LINE
  5
B17
330
A02
100
AcDbEntity
  8
Solid
100
AcDbLine
 10
-108.151
 20
-77.3435
 30
0
 11
-108.151
 21
-77.3435
 31
5
  0
LINE
  5
B18
330
A02
100
AcDbEntity
  8
Solid
100
AcDbLine
 10
-99.3902
 20
-69.4315
 30
0
 11
-99.3902
 21
-69.4315
 31
5
  0
ARC
  5
B19
330
A02
100
AcDbEntity
  8
Solid
100
AcDbCircle
 10
-167.994
 20
-2.27805
 30
5
 40
96
100
AcDbArc
 50
-51.4378
 51
-44.3881
  0
LINE
  5
B1A
330
A02
100
AcDbEntity
  8
Solid
100
AcDbLine
 10
-108.151
 20
-77.3435
 30
0
 11
-108.151
 21
-77.3435
 31
5
  0
ARC
  5
B1B
330
A02
100
AcDbEntity
  8
Solid
100
AcDbCircle
 10
-167.994
 20
-2.27805
 30
0
 40
96
100
AcDbArc
 50
-51.4378
 51
-44.3881
  0
LINE
  5
B1C
330
A02
100
AcDbEntity
  8
Solid
100
AcDbLine
 10
-97.4745
 20
-67.4744
 30
0
 11
-99.3902
 21
-69.4315
 31
0
  0
LINE
  5
B1D
330
A02
100
AcDbEntity
  8
Solid
100
AcDbLine
 10
-99.3902
 20
-69.4315
 30
0
 11
-99.3902
 21
-69.4315
 31
5
  0
LINE
  5
B1E
330
A02
100
AcDbEntity
  8
Solid
100
AcDbLine
 10
-97.4745
 20
-67.4744
 30
5
 11
-99.3902
 21
-69.4315
 31
5
  0
LINE
  5
B1F
330
A02
100
AcDbEntity
  8
Solid
100
AcDbLine
 10
-97.4745
 20
-67.4744
 30
0
 11
-97.4745
 21
-67.4744
 31
5
  0
ARC
  5
B20
330
A02
100
AcDbEntity
  8
Solid
100
AcDbCircle
 10
-92.901
 20
-71.9513
 30
0
 40
6.4
100
AcDbArc
 50
122.101
 51
135.612
  0
LINE
  5
B21
330
A02
100
AcDbEntity
  8
Solid
100
AcDbLine
 10
-97.4745
 20
-67.4744
 30
0
 11
-97.4745
 21
-67.4744
 31
5
  0
ARC
  5
B22
330
A02
100
AcDbEntity
  8
Solid
100
AcDbCircle
 10
-92.901
 20
-71.9513
 30
5
 40
6.4
100
AcDbArc
 50
122.101
 51
135.612
  0
LINE
  5
B23
330
A02
100
AcDbEntity
  8
Solid
100
AcDbLine
 10
-96.302
 20
-66.5298
 30
0
 11
-96.302
 21
-66.5298
 31
5
  0
LINE
  5
B24
330
A02
100
AcDbEntity
  8
Solid
100
AcDbLine
 10
-43.9571
 20
-31.3639
 30
0
 11
-43.9571
 21
-31.3639
 31
5
  0
ARC
  5
B25
330
A02
100
AcDbEntity
  8
Solid
100
AcDbCircle
 10
-405.686
 20
450.534
 30
5
 40
602.556
100
AcDbArc
 50
-59.1059
 51
-53.1069
  0
LINE
  5
B26
330
A02
100
AcDbEntity
  8
Solid
100
AcDbLine
 10
-96.302
 20
-66.5298
 30
0
 11
-96.302
 21
-66.5298
 31
5
  0
ARC
  5
B27
330
A02
100
AcDbEntity
  8
Solid
100
AcDbCircle
 10
-405.686
 20
450.534
 30
0
 40
602.556
100
AcDbArc
 50
-59.1059
 51
-53.1069
  0
ARC
  5
B28
330
A02
100
AcDbEntity
  8
Solid
100
AcDbCircle
 10
302.522
 20
-535.056
 30
0
 40
602.556
100
AcDbArc
 50
124.506
 51
130.505
  0
ARC
  5
B29
330
A02
100
AcDbEntity
  8
Solid
100
AcDbCircle
 10
-92.901
 20
-71.9513
 30
0
 40
6.4
100
AcDbArc
 50
-57.8096
 51
-50.7015
  0
ARC
  5
B2A
330
A02
100
AcDbEntity
  8
Solid
100
AcDbCircle
 10
-73.5095
 20
-102.756
 30
0
 40
30
100
AcDbArc
 50
122.19
 51
133.957
  0
ARC
  5
B2B
330
A02
100
AcDbEntity
  8
Solid
100
AcDbCircle
 10
-98.1506
 20
-77.2009
 30
0
 40
5.5
100
AcDbArc
 50
-75.0306
 51
-46.0431
  0
ARC
  5
B2C
330
A02
100
AcDbEntity
  8
Solid
100
AcDbCircle
 10
-91.6392
 20
-101.579
 30
0
 40
19.7327
100
AcDbArc
 50
104.951
 51
133.227
  0
LINE
  5
B2D
330
A02
100
AcDbEntity
  8
Solid
100
AcDbLine
 10
-108.151
 20
-87.2009
 30
0
 11
-105.154
 21
-87.2009
 31
0
  0
LINE
  5
B2E
330
A02
100
AcDbEntity
  8
Solid
100
AcDbLine
 10
-108.151
 20
-84.7562
 30
0
 11
-108.151
 21
-87.2009
 31
0
  0
LINE
  5
B2F
330
A02
100
AcDbEntity
  8
Solid
100
AcDbLine
 10
-107.275
 20
-84.1274
 30
0
 11
-108.151
 21
-84.7562
 31
0
  0
ARC
  5
B30
330
A02
100
AcDbEntity
  8
Solid
100
AcDbCircle
 10
-108.151
 20
-82.9092
 30
0
 40
1.5
100
AcDbArc
 50
-54.3043
 51
89.9999
  0
LINE
  5
B31
330
A02
100
AcDbEntity
  8
Solid
100
AcDbLine
 10
-108.151
 20
-77.3435
 30
0
 11
-108.151
 21
-81.4092
 31
0
  0
ARC
  5
B32
330
A02
100
AcDbEntity
  8
Solid
100
AcDbCircle
 10
-167.994
 20
-2.27805
 30
0
 40
96
100
AcDbArc
 50
-51.4378
 51
-44.3881
  0
LINE
  5
B33
330
A02
100
AcDbEntity
  8
Solid
100
AcDbLine
 10
-97.4745
 20
-67.4744
 30
0
 11
-99.3902
 21
-69.4315
 31
0
  0
ARC
  5
B34
330
A02
100
AcDbEntity
  8
Solid
100
AcDbCircle
 10
-92.901
 20
-71.9513
 30
0
 40
6.4
100
AcDbArc
 50
122.101
 51
135.612
  0
ARC
  5
B35
330
A02
100
AcDbEntity
  8
Solid
100
AcDbCircle
 10
-405.686
 20
450.534
 30
0
 40
602.556
100
AcDbArc
 50
-59.1059
 51
-53.1069
  0
ARC
  5
B36
330
A02
100
AcDbEntity
  8
Solid
100
AcDbCircle
 10
-57.364
 20
-11.5663
 30
0
 40
23.91
100
AcDbArc
 50
-55.8941
 51
-17.1032
  0
LINE
  5
B37
330
A02
100
AcDbEntity
  8
Solid
100
AcDbLine
 10
-32.4141
 20
-11.7823
 30
0
 11
-34.5114
 21
-18.5981
 31
0
  0
ARC
  5
B38
330
A02
100
AcDbEntity
  8
Solid
100
AcDbCircle
 10
-29.5468
 20
-12.6646
 30
0
 40
3
100
AcDbArc
 50
102.042
 51
162.897
  0
ARC
  5
B39
330
A02
100
AcDbEntity
  8
Solid
100
AcDbCircle
 10
-32.4676
 20
1.02734
 30
0
 40
11
100
AcDbArc
 50
-77.9581
 51
-12.1242
  0
ARC
  5
B3A
330
A02
100
AcDbEntity
  8
Solid
100
AcDbCircle
 10
-18.7798
 20
-1.91309
 30
0
 40
3
100
AcDbArc
 50
54.1062
 51
167.876
  0
ARC
  5
B3B
330
A02
100
AcDbEntity
  8
Solid
100
AcDbCircle
 10
-2.36386
 20
20.7698
 30
0
 40
25
100
AcDbArc
 50
-125.894
 51
-90.9446
  0
ARC
  5
B3C
330
A02
100
AcDbEntity
  8
Solid
100
AcDbCircle
 10
-2.82548
 20
-7.22635
 30
0
 40
3
100
AcDbArc
 50
-17.6558
 51
89.0554
  0
ARC
  5
B3D
330
A02
100
AcDbEntity
  8
Solid
100
AcDbCircle
 10
23.8556
 20
-15.7187
 30
0
 40
25
100
AcDbArc
 50
162.344
 51
-162.707
  0
ARC
  5
B3E
330
A02
100
AcDbEntity
  8
Solid
100
AcDbCircle
 10
-2.87866
 20
-24.0421
 30
0
 40
3
100
AcDbArc
 50
-96.4763
 51
17.2934
  0
ARC
  5
B3F
330
A02
100
AcDbEntity
  8
Solid
100
AcDbCircle
 10
-4.45774
 20
-37.9528
 30
0
 40
11
100
AcDbArc
 50
83.5237
 51
149.358
  0
ARC
  5
B40
330
A02
100
AcDbEntity
  8
Solid
100
AcDbCircle
 10
-16.5029
 20
-30.8173
 30
0
 40
3
100
AcDbArc
 50
-91.4973
 51
-30.6423
  0
LINE
  5
B41
330
A02
100
AcDbEntity
  8
Solid
100
AcDbLine
 10
-23.71
 20
-33.6299
 30
0
 11
-16.5812
 21
-33.8163
 31
0
  0
ARC
  5
B42
330
A02
100
AcDbEntity
  8
Solid
100
AcDbCircle
 10
-24.3348
 20
-57.5325
 30
0
 40
23.9107
100
AcDbArc
 50
88.5027
 51
127.293
  0
CIRCLE
  5
B43
330
A02
100
AcDbEntity
  8
Solid
100
AcDbCircle
 10
-18.4627
 20
-18.4627
 40
3.5
  0
CIRCLE
  5
B44
330
A02
100
AcDbEntity
  8
Solid
100
AcDbCircle
 10
-3.84511
 20
-7.95903
 40
1.5
  0
CIRCLE
  5
B45
330
A02
100
AcDbEntity
  8
Solid
100
AcDbCircle
 10
-33.0802
 20
-28.9664
 40
1.5
  0
ARC
  5
B46
330
A02
100
AcDbEntity
  8
Solid
100
AcDbCircle
 10
-17.0152
 20
-26.3307
 30
0
 40
3
100
AcDbArc
 50
-141.755
 51
123.153
  0
ARC
  5
B47
330
A02
100
AcDbEntity
  8
Solid
100
AcDbCircle
 10
-19.2028
 20
-22.9818
 30
0
 40
1
100
AcDbArc
 50
-141.755
 51
-56.8466
  0
ARC
  5
B48
330
A02
100
AcDbEntity
  8
Solid
100
AcDbCircle
 10
-22.3442
 20
-25.458
 30
0
 40
3
100
AcDbArc
 50
38.2451
 51
-56.8466
  0
ARC
  5
B49
330
A02
100
AcDbEntity
  8
Solid
100
AcDbCircle
 10
-20.1567
 20
-28.8068
 30
0
 40
1
100
AcDbArc
 50
38.2451
 51
123.153
  0
ARC
  5
B4A
330
A02
100
AcDbEntity
  8
Solid
100
AcDbCircle
 10
-28.8067
 20
-16.7687
 30
0
 40
1
100
AcDbArc
 50
-51.7549
 51
33.1534
  0
ARC
  5
B4B
330
A02
100
AcDbEntity
  8
Solid
100
AcDbCircle
 10
-26.3306
 20
-19.9101
 30
0
 40
3
100
AcDbArc
 50
128.245
 51
33.1534
  0
ARC
  5
B4C
330
A02
100
AcDbEntity
  8
Solid
100
AcDbCircle
 10
-22.9818
 20
-17.7226
 30
0
 40
1
100
AcDbArc
 50
128.245
 51
-146.847
  0
ARC
  5
B4D
330
A02
100
AcDbEntity
  8
Solid
100
AcDbCircle
 10
-25.4579
 20
-14.5811
 30
0
 40
3
100
AcDbArc
 50
-51.7549
 51
-146.847
  0
ARC
  5
B4E
330
A02
100
AcDbEntity
  8
Solid
100
AcDbCircle
 10
-8.11858
 20
-20.1568
 30
0
 40
1
100
AcDbArc
 50
128.245
 51
-146.847
  0
ARC
  5
B4F
330
A02
100
AcDbEntity
  8
Solid
100
AcDbCircle
 10
-10.5947
 20
-17.0153
 30
0
 40
3
100
AcDbArc
 50
-51.7549
 51
-146.847
  0
ARC
  5
B50
330
A02
100
AcDbEntity
  8
Solid
100
AcDbCircle
 10
-13.9435
 20
-19.2028
 30
0
 40
1
100
AcDbArc
 50
-51.7549
 51
33.1534
  0
ARC
  5
B51
330
A02
100
AcDbEntity
  8
Solid
100
AcDbCircle
 10
-11.4674
 20
-22.3443
 30
0
 40
3
100
AcDbArc
 50
128.245
 51
33.1534
  0
ARC
  5
B52
330
A02
100
AcDbEntity
  8
Solid
100
AcDbCircle
 10
-14.5811
 20
-11.4675
 30
0
 40
3
100
AcDbArc
 50
-141.755
 51
123.153
  0
ARC
  5
B53
330
A02
100
AcDbEntity
  8
Solid
100
AcDbCircle
 10
-16.7686
 20
-8.11864
 30
0
 40
1
100
AcDbArc
 50
-141.755
 51
-56.8466
  0
ARC
  5
B54
330
A02
100
AcDbEntity
  8
Solid
100
AcDbCircle
 10
-19.9101
 20
-10.5947
 30
0
 40
3
100
AcDbArc
 50
38.2451
 51
-56.8466
  0
ARC
  5
B55
330
A02
100
AcDbEntity
  8
Solid
100
AcDbCircle
 10
-17.7226
 20
-13.9436
 30
0
 40
1
100
AcDbArc
 50
38.2451
 51
123.153
  0
CIRCLE
  5
B56
330
A02
100
AcDbEntity
  8
Solid
100
AcDbCircle
 10
-92.9006
 20
-71.9511
 40
1.5
  0
CIRCLE
  5
B57
330
A02
100
AcDbEntity
  8
Solid
100
AcDbCircle
 10
-98.1506
 20
-77.2009
 40
1.5
  0
ENDSEC
  0
SECTION
  2
OBJECTS
  0
DICTIONARY
  5
F000
330
0
100
AcDbDictionary
  3
ACAD_GROUP
350
F001
  0
DICTIONARY
  5
F001
330
F000
100
AcDbDictionary
  0
ENDSEC
  0
EOF