999
FreeCAD v0.19 24291 (Git)
  0
SECTION
  2
HEADER
  9
$ACADVER
  1
AC1014
  9
$ACADMAINTVER
 70
     9
  9
$DWGCODEPAGE
  3
ANSI_1252
  9
$TEXTSTYLE
  7
STANDARD
  9
$DIMSTYLE
  2
STANDARD
  9
$DIMTXSTY
  7
STANDARD
  9
$CMLSTYLE
  2
STANDARD
  9
$PEXTMAX
 10
50
 20
50
 30
50
  9
$PEXTMIN
 10
0
 20
0
 30
0
  9
$HANDSEED
  5
FFFF
  0
ENDSEC
  0
SECTION
  2
CLASSES
  0
CLASS
  1
ACDBDICTIONARYWDFLT
  2
AcDbDictionaryWithDefault
  3
ObjectDBX Classes
 90
        0
280
     0
281
     0
  0
CLASS
  1
XRECORD
  2
AcDbXrecord
  3
ObjectDBX Classes
 90
        0
280
     0
281
     0
  0
CLASS
  1
LWPOLYLINE
  2
AcDbPolyline
  3
ObjectDBX Classes
 90
        0
280
     0
281
     1
  0
ENDSEC
  0
SECTION
  2
TABLES
  0
TABLE
  2
VPORT
  5
20
330
0
100
AcDbSymbolTable
 70
     1
  0
VPORT
  5
21
330
20
100
AcDbSymbolTableRecord
100
AcDbViewportTableRecord
  2
*ACTIVE
 70
     0
  0
ENDTAB
  0
TABLE
  2
LTYPE
  5
22
330
0
100
AcDbSymbolTable
 70
     1
  0
LTYPE
  5
23
330
21
100
AcDbSymbolTableRecord
100
AcDbLinetypeTableRecord
  2
BYBLOCK
 70
     0
  3

 72
    65
 73
     0
 40
0.0
  0
LTYPE
  5
24
330
21
100
AcDbSymbolTableRecord
100
AcDbLinetypeTableRecord
  2
BYLAYER
 70
     0
  3

 72
    65
 73
     0
 40
0.0
  0
LTYPE
  5
25
330
21
100
AcDbSymbolTableRecord
100
AcDbLinetypeTableRecord
  2
CONTINUOUS
 70
     0
  3
Solid line
 72
    65
 73
     0
 40
0.0
  0
ENDTAB
  0
TABLE
  2
LAYER
  5
A9E
330
0
100
AcDbSymbolTable
 70
3
  0
LAYER
  5
A9F
330
A9E
100
AcDbSymbolTableRecord
100
AcDbLayerTableRecord
  2
0
 70
   0
 62
   7
  6
CONTINUOUS
  0
LAYER
  5
AA0
330
A9E
100
AcDbSymbolTableRecord
100
AcDbLayerTableRecord
  2
none
 70
    0
 62
    7
  6
CONTINUOUS
  0
LAYER
  5
AA1
330
A9E
100
AcDbSymbolTableRecord
100
AcDbLayerTableRecord
  2
Solid
 70
    0
 62
    7
  6
CONTINUOUS
  0
ENDTAB
  0
TABLE
  2
STYLE
  5
70
330
0
100
AcDbSymbolTable
 70
     2
  0
STYLE
  5
71
330
70
100
AcDbSymbolTableRecord
100
AcDbTextStyleTableRecord
  2
STANDARD
 70
     0
 40
0.0
 41
1.0
 50
0.0
 71
     0
 42
2.5
  3
arial.ttf
  4

  0
STYLE
  5
72
330
70
100
AcDbSymbolTableRecord
100
AcDbTextStyleTableRecord
  2
ANNOTATIVE
 70
     0
 40
0.0
 41
1.0
 50
0.0
 71
     0
 42
2.5
  3
arial.ttf
  4

  0
ENDTAB
  0
TABLE
  2
VIEW
  5
73
330
0
100
AcDbSymbolTable
 70
     0
  0
ENDTAB
  0
TABLE
  2
UCS
  5
74
330
0
100
AcDbSymbolTable
 70
     0
  0
ENDTAB
  0
TABLE
  2
APPID
  5
75
330
0
100
AcDbSymbolTable
 70
     2
  0
APPID
  5
76
330
75
100
AcDbSymbolTableRecord
100
AcDbRegAppTableRecord
  2
ACAD
 70
     0
  0
APPID
  5
77
330
75
100
AcDbSymbolTableRecord
100
AcDbRegAppTableRecord
  2
ACADANNOTATIVE
 70
     0
  0
ENDTAB
  0
TABLE
  2
DIMSTYLE
  5
78
330
0
100
AcDbSymbolTable
 70
     2
  0
DIMSTYLE
105
79
330
78
100
AcDbSymbolTableRecord
100
AcDbDimStyleTableRecord
  2
STANDARD
 70
     0
  3

  4

  5

  6

  7

 40
0.0
 41
2.5
 42
0.625
 43
3.75
 44
1.25
 45
0.0
 46
0.0
 47
0.0
 48
0.0
140
2.5
141
2.5
142
0.0
143
0.03937007874016
144
1.0
145
0.0
146
1.0
147
0.625
 71
     0
 72
     0
 73
     0
 74
     0
 75
     0
 76
     0
 77
     1
 78
     8
170
     0
171
     3
172
     1
173
     0
174
     0
175
     0
176
     0
177
     0
178
     0
270
     2
271
     2
272
     2
273
     2
274
     3
340
71
275
     0
280
     0
281
     0
282
     0
283
     0
284
     8
285
     0
286
     0
287
     3
288
     0
  0
ENDTAB
  0
TABLE
  2
BLOCK_RECORD
  5
A01
330
0
100
AcDbSymbolTable
  70
5
  0
BLOCK_RECORD
  5
A02
330
A01
100
AcDbSymbolTableRecord
100
AcDbBlockTableRecord
  2
*MODEL_SPACE
  0
BLOCK_RECORD
  5
A03
330
A01
100
AcDbSymbolTableRecord
100
AcDbBlockTableRecord
  2
*PAPER_SPACE
  0
ENDTAB
  0
ENDSEC
  0
SECTION
  2
BLOCKS
  0
BLOCK
  5
A04
330
A02
100
AcDbEntity
  8
0
100
AcDbBlockBegin
  2
*MODEL_SPACE
 70
   0
 10
0
 20
0
 30
0
  3
*MODEL_SPACE
  1
 
  0
ENDBLK
  5
A05
330
A02
100
AcDbEntity
  8
0
100
AcDbBlockEnd
  0
BLOCK
  5
A06
330
A03
100
AcDbEntity
 67
1
  8
0
100
AcDbBlockBegin
  2
*PAPER_SPACE
 70
   0
 10
0
 20
0
 30
0
  3
*PAPER_SPACE
  1
 
  0
ENDBLK
  5
A07
330
A03
100
AcDbEntity
 67
    1
  8
0
100
AcDbBlockEnd
  0
ENDSEC
  0
SECTION
  2
ENTITIES
  0
LINE
  5
A08
330
A02
100
AcDbEntity
  8
Solid
100
AcDbLine
 10
51.6429
 20
35.098
 30
0
 11
51.6429
 21
35.098
 31
3
  0
CIRCLE
  5
A09
330
A02
100
AcDbEntity
  8
Solid
100
AcDbCircle
 10
50.1429
 20
35.098
 40
1.5
  0
LINE
  5
A0A
330
A02
100
AcDbEntity
  8
Solid
100
AcDbLine
 10
51.6429
 20
35.098
 30
0
 11
51.6429
 21
35.098
 31
3
  0
CIRCLE
  5
A0B
330
A02
100
AcDbEntity
  8
Solid
100
AcDbCircle
 10
50.1429
 20
35.098
 40
1.5
  0
LINE
  5
A0C
330
A02
100
AcDbEntity
  8
Solid
100
AcDbLine
 10
22.4078
 20
14.0906
 30
0
 11
22.4078
 21
14.0906
 31
3
  0
CIRCLE
  5
A0D
330
A02
100
AcDbEntity
  8
Solid
100
AcDbCircle
 10
20.9078
 20
14.0906
 40
1.5
  0
LINE
  5
A0E
330
A02
100
AcDbEntity
  8
Solid
100
AcDbLine
 10
22.4078
 20
14.0906
 30
0
 11
22.4078
 21
14.0906
 31
3
  0
CIRCLE
  5
A0F
330
A02
100
AcDbEntity
  8
Solid
100
AcDbCircle
 10
20.9078
 20
14.0906
 40
1.5
  0
LINE
  5
A10
330
A02
100
AcDbEntity
  8
Solid
100
AcDbLine
 10
40.907
 20
31.5895
 30
0
 11
40.907
 21
31.5895
 31
3
  0
CIRCLE
  5
A11
330
A02
100
AcDbEntity
  8
Solid
100
AcDbCircle
 10
39.407
 20
31.5895
 40
1.5
  0
LINE
  5
A12
330
A02
100
AcDbEntity
  8
Solid
100
AcDbLine
 10
40.907
 20
31.5895
 30
0
 11
40.907
 21
31.5895
 31
3
  0
CIRCLE
  5
A13
330
A02
100
AcDbEntity
  8
Solid
100
AcDbCircle
 10
39.407
 20
31.5895
 40
1.5
  0
LINE
  5
A14
330
A02
100
AcDbEntity
  8
Solid
100
AcDbLine
 10
38.4728
 20
16.7263
 30
0
 11
38.4728
 21
16.7263
 31
3
  0
CIRCLE
  5
A15
330
A02
100
AcDbEntity
  8
Solid
100
AcDbCircle
 10
36.9728
 20
16.7263
 40
1.5
  0
LINE
  5
A16
330
A02
100
AcDbEntity
  8
Solid
100
AcDbLine
 10
38.4728
 20
16.7263
 30
0
 11
38.4728
 21
16.7263
 31
3
  0
CIRCLE
  5
A17
330
A02
100
AcDbEntity
  8
Solid
100
AcDbCircle
 10
36.9728
 20
16.7263
 40
1.5
  0
LINE
  5
A18
330
A02
100
AcDbEntity
  8
Solid
100
AcDbLine
 10
44.8934
 20
26.0417
 30
0
 11
44.8934
 21
26.0417
 31
3
  0
CIRCLE
  5
A19
330
A02
100
AcDbEntity
  8
Solid
100
AcDbCircle
 10
43.3934
 20
26.0417
 40
1.5
  0
LINE
  5
A1A
330
A02
100
AcDbEntity
  8
Solid
100
AcDbLine
 10
44.8934
 20
26.0417
 30
0
 11
44.8934
 21
26.0417
 31
3
  0
CIRCLE
  5
A1B
330
A02
100
AcDbEntity
  8
Solid
100
AcDbCircle
 10
43.3934
 20
26.0417
 40
1.5
  0
LINE
  5
A1C
330
A02
100
AcDbEntity
  8
Solid
100
AcDbLine
 10
35.578
 20
32.4623
 30
0
 11
35.578
 21
32.4623
 31
3
  0
CIRCLE
  5
A1D
330
A02
100
AcDbEntity
  8
Solid
100
AcDbCircle
 10
34.078
 20
32.4623
 40
1.5
  0
LINE
  5
A1E
330
A02
100
AcDbEntity
  8
Solid
100
AcDbLine
 10
35.578
 20
32.4623
 30
0
 11
35.578
 21
32.4623
 31
3
  0
CIRCLE
  5
A1F
330
A02
100
AcDbEntity
  8
Solid
100
AcDbCircle
 10
34.078
 20
32.4623
 40
1.5
  0
LINE
  5
A20
330
A02
100
AcDbEntity
  8
Solid
100
AcDbLine
 10
29.1574
 20
23.1469
 30
0
 11
29.1574
 21
23.1469
 31
3
  0
CIRCLE
  5
A21
330
A02
100
AcDbEntity
  8
Solid
100
AcDbCircle
 10
27.6574
 20
23.1469
 40
1.5
  0
LINE
  5
A22
330
A02
100
AcDbEntity
  8
Solid
100
AcDbLine
 10
29.1574
 20
23.1469
 30
0
 11
29.1574
 21
23.1469
 31
3
  0
CIRCLE
  5
A23
330
A02
100
AcDbEntity
  8
Solid
100
AcDbCircle
 10
27.6574
 20
23.1469
 40
1.5
  0
LINE
  5
A24
330
A02
100
AcDbEntity
  8
Solid
100
AcDbLine
 10
44.0206
 20
20.7127
 30
0
 11
44.0206
 21
20.7127
 31
3
  0
CIRCLE
  5
A25
330
A02
100
AcDbEntity
  8
Solid
100
AcDbCircle
 10
42.5206
 20
20.7127
 40
1.5
  0
LINE
  5
A26
330
A02
100
AcDbEntity
  8
Solid
100
AcDbLine
 10
44.0206
 20
20.7127
 30
0
 11
44.0206
 21
20.7127
 31
3
  0
CIRCLE
  5
A27
330
A02
100
AcDbEntity
  8
Solid
100
AcDbCircle
 10
42.5206
 20
20.7127
 40
1.5
  0
LINE
  5
A28
330
A02
100
AcDbEntity
  8
Solid
100
AcDbLine
 10
30.0301
 20
28.4759
 30
0
 11
30.0301
 21
28.4759
 31
3
  0
CIRCLE
  5
A29
330
A02
100
AcDbEntity
  8
Solid
100
AcDbCircle
 10
28.5301
 20
28.4759
 40
1.5
  0
LINE
  5
A2A
330
A02
100
AcDbEntity
  8
Solid
100
AcDbLine
 10
30.0301
 20
28.4759
 30
0
 11
30.0301
 21
28.4759
 31
3
  0
CIRCLE
  5
A2B
330
A02
100
AcDbEntity
  8
Solid
100
AcDbCircle
 10
28.5301
 20
28.4759
 40
1.5
  0
LINE
  5
A2C
330
A02
100
AcDbEntity
  8
Solid
100
AcDbLine
 10
39.0254
 20
24.5943
 30
0
 11
39.0254
 21
24.5943
 31
3
  0
CIRCLE
  5
A2D
330
A02
100
AcDbEntity
  8
Solid
100
AcDbCircle
 10
35.5254
 20
24.5943
 40
3.5
  0
LINE
  5
A2E
330
A02
100
AcDbEntity
  8
Solid
100
AcDbLine
 10
39.0254
 20
24.5943
 30
0
 11
39.0254
 21
24.5943
 31
3
  0
CIRCLE
  5
A2F
330
A02
100
AcDbEntity
  8
Solid
100
AcDbCircle
 10
35.5254
 20
24.5943
 40
3.5
  0
LINE
  5
A30
330
A02
100
AcDbEntity
  8
Solid
100
AcDbLine
 10
33.1438
 20
17.5991
 30
0
 11
33.1438
 21
17.5991
 31
3
  0
CIRCLE
  5
A31
330
A02
100
AcDbEntity
  8
Solid
100
AcDbCircle
 10
31.6438
 20
17.5991
 40
1.5
  0
LINE
  5
A32
330
A02
100
AcDbEntity
  8
Solid
100
AcDbLine
 10
33.1438
 20
17.5991
 30
0
 11
33.1438
 21
17.5991
 31
3
  0
CIRCLE
  5
A33
330
A02
100
AcDbEntity
  8
Solid
100
AcDbCircle
 10
31.6438
 20
17.5991
 40
1.5
  0
ARC
  5
A34
330
A02
100
AcDbEntity
  8
Solid
100
AcDbCircle
 10
20.9078
 20
14.0906
 30
0
 40
5.96412
100
AcDbArc
 50
144.377
 51
-73.1564
  0
LINE
  5
A35
330
A02
100
AcDbEntity
  8
Solid
100
AcDbLine
 10
22.636
 20
8.38235
 30
0
 11
22.636
 21
8.38235
 31
3
  0
ARC
  5
A36
330
A02
100
AcDbEntity
  8
Solid
100
AcDbCircle
 10
20.9078
 20
14.0906
 30
3
 40
5.96412
100
AcDbArc
 50
144.377
 51
-73.1564
  0
LINE
  5
A37
330
A02
100
AcDbEntity
  8
Solid
100
AcDbLine
 10
16.0598
 20
17.5644
 30
0
 11
16.0598
 21
17.5644
 31
3
  0
LINE
  5
A38
330
A02
100
AcDbEntity
  8
Solid
100
AcDbLine
 10
19.4767
 20
24.4589
 30
0
 11
19.4767
 21
24.4589
 31
3
  0
ARC
  5
A39
330
A02
100
AcDbEntity
  8
Solid
100
AcDbCircle
 10
-3.37597
 20
31.4907
 30
3
 40
23.91
100
AcDbArc
 50
-35.6227
 51
-17.1032
  0
LINE
  5
A3A
330
A02
100
AcDbEntity
  8
Solid
100
AcDbLine
 10
16.0598
 20
17.5644
 30
0
 11
16.0598
 21
17.5644
 31
3
  0
ARC
  5
A3B
330
A02
100
AcDbEntity
  8
Solid
100
AcDbCircle
 10
-3.37597
 20
31.4907
 30
0
 40
23.91
100
AcDbArc
 50
-35.6227
 51
-17.1032
  0
LINE
  5
A3C
330
A02
100
AcDbEntity
  8
Solid
100
AcDbLine
 10
21.5739
 20
31.2747
 30
0
 11
19.4767
 21
24.4589
 31
0
  0
LINE
  5
A3D
330
A02
100
AcDbEntity
  8
Solid
100
AcDbLine
 10
19.4767
 20
24.4589
 30
0
 11
19.4767
 21
24.4589
 31
3
  0
LINE
  5
A3E
330
A02
100
AcDbEntity
  8
Solid
100
AcDbLine
 10
21.5739
 20
31.2747
 30
3
 11
19.4767
 21
24.4589
 31
3
  0
LINE
  5
A3F
330
A02
100
AcDbEntity
  8
Solid
100
AcDbLine
 10
21.5739
 20
31.2747
 30
0
 11
21.5739
 21
31.2747
 31
3
  0
ARC
  5
A40
330
A02
100
AcDbEntity
  8
Solid
100
AcDbCircle
 10
24.4413
 20
30.3924
 30
0
 40
3
100
AcDbArc
 50
102.042
 51
162.897
  0
LINE
  5
A41
330
A02
100
AcDbEntity
  8
Solid
100
AcDbLine
 10
21.5739
 20
31.2747
 30
0
 11
21.5739
 21
31.2747
 31
3
  0
ARC
  5
A42
330
A02
100
AcDbEntity
  8
Solid
100
AcDbCircle
 10
24.4413
 20
30.3924
 30
3
 40
3
100
AcDbArc
 50
102.042
 51
162.897
  0
LINE
  5
A43
330
A02
100
AcDbEntity
  8
Solid
100
AcDbLine
 10
23.8154
 20
33.3264
 30
0
 11
23.8154
 21
33.3264
 31
3
  0
LINE
  5
A44
330
A02
100
AcDbEntity
  8
Solid
100
AcDbLine
 10
32.2751
 20
41.774
 30
0
 11
32.2751
 21
41.774
 31
3
  0
ARC
  5
A45
330
A02
100
AcDbEntity
  8
Solid
100
AcDbCircle
 10
21.5205
 20
44.0844
 30
3
 40
11
100
AcDbArc
 50
-77.9581
 51
-12.1242
  0
LINE
  5
A46
330
A02
100
AcDbEntity
  8
Solid
100
AcDbLine
 10
23.8154
 20
33.3264
 30
0
 11
23.8154
 21
33.3264
 31
3
  0
ARC
  5
A47
330
A02
100
AcDbEntity
  8
Solid
100
AcDbCircle
 10
21.5205
 20
44.0844
 30
0
 40
11
100
AcDbArc
 50
-77.9581
 51
-12.1242
  0
ARC
  5
A48
330
A02
100
AcDbEntity
  8
Solid
100
AcDbCircle
 10
35.2082
 20
41.1439
 30
0
 40
3
100
AcDbArc
 50
54.1062
 51
167.876
  0
LINE
  5
A49
330
A02
100
AcDbEntity
  8
Solid
100
AcDbLine
 10
32.2751
 20
41.774
 30
0
 11
32.2751
 21
41.774
 31
3
  0
ARC
  5
A4A
330
A02
100
AcDbEntity
  8
Solid
100
AcDbCircle
 10
35.2082
 20
41.1439
 30
3
 40
3
100
AcDbArc
 50
54.1062
 51
167.876
  0
LINE
  5
A4B
330
A02
100
AcDbEntity
  8
Solid
100
AcDbLine
 10
36.9671
 20
43.5742
 30
0
 11
36.9671
 21
43.5742
 31
3
  0
LINE
  5
A4C
330
A02
100
AcDbEntity
  8
Solid
100
AcDbLine
 10
51.212
 20
38.8303
 30
0
 11
51.212
 21
38.8303
 31
3
  0
ARC
  5
A4D
330
A02
100
AcDbEntity
  8
Solid
100
AcDbCircle
 10
51.6242
 20
63.8269
 30
3
 40
25
100
AcDbArc
 50
-125.894
 51
-90.9446
  0
LINE
  5
A4E
330
A02
100
AcDbEntity
  8
Solid
100
AcDbLine
 10
36.9671
 20
43.5742
 30
0
 11
36.9671
 21
43.5742
 31
3
  0
ARC
  5
A4F
330
A02
100
AcDbEntity
  8
Solid
100
AcDbCircle
 10
51.6242
 20
63.8269
 30
0
 40
25
100
AcDbArc
 50
-125.894
 51
-90.9446
  0
ARC
  5
A50
330
A02
100
AcDbEntity
  8
Solid
100
AcDbCircle
 10
51.1626
 20
35.8307
 30
0
 40
3
100
AcDbArc
 50
-17.6558
 51
89.0554
  0
LINE
  5
A51
330
A02
100
AcDbEntity
  8
Solid
100
AcDbLine
 10
51.212
 20
38.8303
 30
0
 11
51.212
 21
38.8303
 31
3
  0
ARC
  5
A52
330
A02
100
AcDbEntity
  8
Solid
100
AcDbCircle
 10
51.1626
 20
35.8307
 30
3
 40
3
100
AcDbArc
 50
-17.6558
 51
89.0554
  0
LINE
  5
A53
330
A02
100
AcDbEntity
  8
Solid
100
AcDbLine
 10
54.0213
 20
34.9208
 30
0
 11
54.0213
 21
34.9208
 31
3
  0
LINE
  5
A54
330
A02
100
AcDbEntity
  8
Solid
100
AcDbLine
 10
53.9738
 20
19.9067
 30
0
 11
53.9738
 21
19.9067
 31
3
  0
ARC
  5
A55
330
A02
100
AcDbEntity
  8
Solid
100
AcDbCircle
 10
77.8437
 20
27.3383
 30
3
 40
25
100
AcDbArc
 50
162.344
 51
-162.707
  0
LINE
  5
A56
330
A02
100
AcDbEntity
  8
Solid
100
AcDbLine
 10
54.0213
 20
34.9208
 30
0
 11
54.0213
 21
34.9208
 31
3
  0
ARC
  5
A57
330
A02
100
AcDbEntity
  8
Solid
100
AcDbCircle
 10
77.8437
 20
27.3383
 30
0
 40
25
100
AcDbArc
 50
162.344
 51
-162.707
  0
ARC
  5
A58
330
A02
100
AcDbEntity
  8
Solid
100
AcDbCircle
 10
51.1094
 20
19.0149
 30
0
 40
3
100
AcDbArc
 50
-96.4763
 51
17.2934
  0
LINE
  5
A59
330
A02
100
AcDbEntity
  8
Solid
100
AcDbLine
 10
53.9738
 20
19.9067
 30
0
 11
53.9738
 21
19.9067
 31
3
  0
ARC
  5
A5A
330
A02
100
AcDbEntity
  8
Solid
100
AcDbCircle
 10
51.1094
 20
19.0149
 30
3
 40
3
100
AcDbArc
 50
-96.4763
 51
17.2934
  0
LINE
  5
A5B
330
A02
100
AcDbEntity
  8
Solid
100
AcDbLine
 10
50.771
 20
16.034
 30
0
 11
50.771
 21
16.034
 31
3
  0
LINE
  5
A5C
330
A02
100
AcDbEntity
  8
Solid
100
AcDbLine
 10
40.0663
 20
10.7107
 30
0
 11
40.0663
 21
10.7107
 31
3
  0
ARC
  5
A5D
330
A02
100
AcDbEntity
  8
Solid
100
AcDbCircle
 10
49.5303
 20
5.10424
 30
3
 40
11
100
AcDbArc
 50
83.5237
 51
149.358
  0
LINE
  5
A5E
330
A02
100
AcDbEntity
  8
Solid
100
AcDbLine
 10
50.771
 20
16.034
 30
0
 11
50.771
 21
16.034
 31
3
  0
ARC
  5
A5F
330
A02
100
AcDbEntity
  8
Solid
100
AcDbCircle
 10
49.5303
 20
5.10424
 30
0
 40
11
100
AcDbArc
 50
83.5237
 51
149.358
  0
ARC
  5
A60
330
A02
100
AcDbEntity
  8
Solid
100
AcDbCircle
 10
37.4852
 20
12.2397
 30
0
 40
3
100
AcDbArc
 50
-91.4973
 51
-30.6423
  0
LINE
  5
A61
330
A02
100
AcDbEntity
  8
Solid
100
AcDbLine
 10
40.0663
 20
10.7107
 30
0
 11
40.0663
 21
10.7107
 31
3
  0
ARC
  5
A62
330
A02
100
AcDbEntity
  8
Solid
100
AcDbCircle
 10
37.4852
 20
12.2397
 30
3
 40
3
100
AcDbArc
 50
-91.4973
 51
-30.6423
  0
LINE
  5
A63
330
A02
100
AcDbEntity
  8
Solid
100
AcDbLine
 10
37.4068
 20
9.24075
 30
0
 11
37.4068
 21
9.24075
 31
3
  0
LINE
  5
A64
330
A02
100
AcDbEntity
  8
Solid
100
AcDbLine
 10
30.2781
 20
9.42708
 30
0
 11
37.4068
 21
9.24075
 31
0
  0
LINE
  5
A65
330
A02
100
AcDbEntity
  8
Solid
100
AcDbLine
 10
37.4068
 20
9.24075
 30
0
 11
37.4068
 21
9.24075
 31
3
  0
LINE
  5
A66
330
A02
100
AcDbEntity
  8
Solid
100
AcDbLine
 10
30.2781
 20
9.42708
 30
3
 11
37.4068
 21
9.24075
 31
3
  0
LINE
  5
A67
330
A02
100
AcDbEntity
  8
Solid
100
AcDbLine
 10
30.2781
 20
9.42708
 30
0
 11
30.2781
 21
9.42708
 31
3
  0
LINE
  5
A68
330
A02
100
AcDbEntity
  8
Solid
100
AcDbLine
 10
22.636
 20
8.38235
 30
0
 11
22.636
 21
8.38235
 31
3
  0
ARC
  5
A69
330
A02
100
AcDbEntity
  8
Solid
100
AcDbCircle
 10
29.6533
 20
-14.4755
 30
3
 40
23.9107
100
AcDbArc
 50
88.5027
 51
107.066
  0
LINE
  5
A6A
330
A02
100
AcDbEntity
  8
Solid
100
AcDbLine
 10
30.2781
 20
9.42708
 30
0
 11
30.2781
 21
9.42708
 31
3
  0
ARC
  5
A6B
330
A02
100
AcDbEntity
  8
Solid
100
AcDbCircle
 10
29.6533
 20
-14.4755
 30
0
 40
23.9107
100
AcDbArc
 50
88.5027
 51
107.066
  0
ARC
  5
A6C
330
A02
100
AcDbEntity
  8
Solid
100
AcDbCircle
 10
29.6533
 20
-14.4755
 30
3
 40
23.9107
100
AcDbArc
 50
88.5027
 51
107.066
  0
LINE
  5
A6D
330
A02
100
AcDbEntity
  8
Solid
100
AcDbLine
 10
30.2781
 20
9.42708
 30
3
 11
37.4068
 21
9.24075
 31
3
  0
ARC
  5
A6E
330
A02
100
AcDbEntity
  8
Solid
100
AcDbCircle
 10
37.4852
 20
12.2397
 30
3
 40
3
100
AcDbArc
 50
-91.4973
 51
-30.6423
  0
ARC
  5
A6F
330
A02
100
AcDbEntity
  8
Solid
100
AcDbCircle
 10
49.5303
 20
5.10424
 30
3
 40
11
100
AcDbArc
 50
83.5237
 51
149.358
  0
ARC
  5
A70
330
A02
100
AcDbEntity
  8
Solid
100
AcDbCircle
 10
51.1094
 20
19.0149
 30
3
 40
3
100
AcDbArc
 50
-96.4763
 51
17.2934
  0
ARC
  5
A71
330
A02
100
AcDbEntity
  8
Solid
100
AcDbCircle
 10
77.8437
 20
27.3383
 30
3
 40
25
100
AcDbArc
 50
162.344
 51
-162.707
  0
ARC
  5
A72
330
A02
100
AcDbEntity
  8
Solid
100
AcDbCircle
 10
51.1626
 20
35.8307
 30
3
 40
3
100
AcDbArc
 50
-17.6558
 51
89.0554
  0
ARC
  5
A73
330
A02
100
AcDbEntity
  8
Solid
100
AcDbCircle
 10
51.6242
 20
63.8269
 30
3
 40
25
100
AcDbArc
 50
-125.894
 51
-90.9446
  0
ARC
  5
A74
330
A02
100
AcDbEntity
  8
Solid
100
AcDbCircle
 10
35.2082
 20
41.1439
 30
3
 40
3
100
AcDbArc
 50
54.1062
 51
167.876
  0
ARC
  5
A75
330
A02
100
AcDbEntity
  8
Solid
100
AcDbCircle
 10
21.5205
 20
44.0844
 30
3
 40
11
100
AcDbArc
 50
-77.9581
 51
-12.1242
  0
ARC
  5
A76
330
A02
100
AcDbEntity
  8
Solid
100
AcDbCircle
 10
24.4413
 20
30.3924
 30
3
 40
3
100
AcDbArc
 50
102.042
 51
162.897
  0
LINE
  5
A77
330
A02
100
AcDbEntity
  8
Solid
100
AcDbLine
 10
21.5739
 20
31.2747
 30
3
 11
19.4767
 21
24.4589
 31
3
  0
ARC
  5
A78
330
A02
100
AcDbEntity
  8
Solid
100
AcDbCircle
 10
-3.37597
 20
31.4907
 30
3
 40
23.91
100
AcDbArc
 50
-35.6227
 51
-17.1032
  0
ARC
  5
A79
330
A02
100
AcDbEntity
  8
Solid
100
AcDbCircle
 10
20.9078
 20
14.0906
 30
3
 40
5.96412
100
AcDbArc
 50
144.377
 51
-73.1564
  0
CIRCLE
  5
A7A
330
A02
100
AcDbEntity
  8
Solid
100
AcDbCircle
 10
31.6438
 20
17.5991
 40
1.5
  0
CIRCLE
  5
A7B
330
A02
100
AcDbEntity
  8
Solid
100
AcDbCircle
 10
35.5254
 20
24.5943
 40
3.5
  0
CIRCLE
  5
A7C
330
A02
100
AcDbEntity
  8
Solid
100
AcDbCircle
 10
28.5301
 20
28.4759
 40
1.5
  0
CIRCLE
  5
A7D
330
A02
100
AcDbEntity
  8
Solid
100
AcDbCircle
 10
42.5206
 20
20.7127
 40
1.5
  0
CIRCLE
  5
A7E
330
A02
100
AcDbEntity
  8
Solid
100
AcDbCircle
 10
27.6574
 20
23.1469
 40
1.5
  0
CIRCLE
  5
A7F
330
A02
100
AcDbEntity
  8
Solid
100
AcDbCircle
 10
34.078
 20
32.4623
 40
1.5
  0
CIRCLE
  5
A80
330
A02
100
AcDbEntity
  8
Solid
100
AcDbCircle
 10
43.3934
 20
26.0417
 40
1.5
  0
CIRCLE
  5
A81
330
A02
100
AcDbEntity
  8
Solid
100
AcDbCircle
 10
36.9728
 20
16.7263
 40
1.5
  0
CIRCLE
  5
A82
330
A02
100
AcDbEntity
  8
Solid
100
AcDbCircle
 10
39.407
 20
31.5895
 40
1.5
  0
CIRCLE
  5
A83
330
A02
100
AcDbEntity
  8
Solid
100
AcDbCircle
 10
20.9078
 20
14.0906
 40
1.5
  0
CIRCLE
  5
A84
330
A02
100
AcDbEntity
  8
Solid
100
AcDbCircle
 10
50.1429
 20
35.098
 40
1.5
  0
ARC
  5
A85
330
A02
100
AcDbEntity
  8
Solid
100
AcDbCircle
 10
29.6533
 20
-14.4755
 30
0
 40
23.9107
100
AcDbArc
 50
88.5027
 51
107.066
  0
ARC
  5
A86
330
A02
100
AcDbEntity
  8
Solid
100
AcDbCircle
 10
20.9078
 20
14.0906
 30
0
 40
5.96412
100
AcDbArc
 50
144.377
 51
-73.1564
  0
ARC
  5
A87
330
A02
100
AcDbEntity
  8
Solid
100
AcDbCircle
 10
-3.37597
 20
31.4907
 30
0
 40
23.91
100
AcDbArc
 50
-35.6227
 51
-17.1032
  0
LINE
  5
A88
330
A02
100
AcDbEntity
  8
Solid
100
AcDbLine
 10
21.5739
 20
31.2747
 30
0
 11
19.4767
 21
24.4589
 31
0
  0
ARC
  5
A89
330
A02
100
AcDbEntity
  8
Solid
100
AcDbCircle
 10
24.4413
 20
30.3924
 30
0
 40
3
100
AcDbArc
 50
102.042
 51
162.897
  0
ARC
  5
A8A
330
A02
100
AcDbEntity
  8
Solid
100
AcDbCircle
 10
21.5205
 20
44.0844
 30
0
 40
11
100
AcDbArc
 50
-77.9581
 51
-12.1242
  0
ARC
  5
A8B
330
A02
100
AcDbEntity
  8
Solid
100
AcDbCircle
 10
35.2082
 20
41.1439
 30
0
 40
3
100
AcDbArc
 50
54.1062
 51
167.876
  0
ARC
  5
A8C
330
A02
100
AcDbEntity
  8
Solid
100
AcDbCircle
 10
51.6242
 20
63.8269
 30
0
 40
25
100
AcDbArc
 50
-125.894
 51
-90.9446
  0
ARC
  5
A8D
330
A02
100
AcDbEntity
  8
Solid
100
AcDbCircle
 10
51.1626
 20
35.8307
 30
0
 40
3
100
AcDbArc
 50
-17.6558
 51
89.0554
  0
ARC
  5
A8E
330
A02
100
AcDbEntity
  8
Solid
100
AcDbCircle
 10
77.8437
 20
27.3383
 30
0
 40
25
100
AcDbArc
 50
162.344
 51
-162.707
  0
ARC
  5
A8F
330
A02
100
AcDbEntity
  8
Solid
100
AcDbCircle
 10
51.1094
 20
19.0149
 30
0
 40
3
100
AcDbArc
 50
-96.4763
 51
17.2934
  0
ARC
  5
A90
330
A02
100
AcDbEntity
  8
Solid
100
AcDbCircle
 10
49.5303
 20
5.10424
 30
0
 40
11
100
AcDbArc
 50
83.5237
 51
149.358
  0
ARC
  5
A91
330
A02
100
AcDbEntity
  8
Solid
100
AcDbCircle
 10
37.4852
 20
12.2397
 30
0
 40
3
100
AcDbArc
 50
-91.4973
 51
-30.6423
  0
LINE
  5
A92
330
A02
100
AcDbEntity
  8
Solid
100
AcDbLine
 10
30.2781
 20
9.42708
 30
0
 11
37.4068
 21
9.24075
 31
0
  0
CIRCLE
  5
A93
330
A02
100
AcDbEntity
  8
Solid
100
AcDbCircle
 10
31.6438
 20
17.5991
 40
1.5
  0
CIRCLE
  5
A94
330
A02
100
AcDbEntity
  8
Solid
100
AcDbCircle
 10
35.5254
 20
24.5943
 40
3.5
  0
CIRCLE
  5
A95
330
A02
100
AcDbEntity
  8
Solid
100
AcDbCircle
 10
28.5301
 20
28.4759
 40
1.5
  0
CIRCLE
  5
A96
330
A02
100
AcDbEntity
  8
Solid
100
AcDbCircle
 10
42.5206
 20
20.7127
 40
1.5
  0
CIRCLE
  5
A97
330
A02
100
AcDbEntity
  8
Solid
100
AcDbCircle
 10
27.6574
 20
23.1469
 40
1.5
  0
CIRCLE
  5
A98
330
A02
100
AcDbEntity
  8
Solid
100
AcDbCircle
 10
34.078
 20
32.4623
 40
1.5
  0
CIRCLE
  5
A99
330
A02
100
AcDbEntity
  8
Solid
100
AcDbCircle
 10
43.3934
 20
26.0417
 40
1.5
  0
CIRCLE
  5
A9A
330
A02
100
AcDbEntity
  8
Solid
100
AcDbCircle
 10
36.9728
 20
16.7263
 40
1.5
  0
CIRCLE
  5
A9B
330
A02
100
AcDbEntity
  8
Solid
100
AcDbCircle
 10
39.407
 20
31.5895
 40
1.5
  0
CIRCLE
  5
A9C
330
A02
100
AcDbEntity
  8
Solid
100
AcDbCircle
 10
20.9078
 20
14.0906
 40
1.5
  0
CIRCLE
  5
A9D
330
A02
100
AcDbEntity
  8
Solid
100
AcDbCircle
 10
50.1429
 20
35.098
 40
1.5
  0
ENDSEC
  0
SECTION
  2
OBJECTS
  0
DICTIONARY
  5
F000
330
0
100
AcDbDictionary
  3
ACAD_GROUP
350
F001
  0
DICTIONARY
  5
F001
330
F000
100
AcDbDictionary
  0
ENDSEC
  0
EOF